<svg width="148" height="161" viewBox="0 0 148 161" fill="none" xmlns="http://www.w3.org/2000/svg">
<path d="M91.2347 66.7301C84.7931 64.2323 48.1152 67.7555 41.8839 73.6713C35.6789 79.5871 40.6744 110.139 43.3037 118.999C45.9329 127.86 69.0177 141.006 72.1727 142.242C75.3278 143.504 91.2347 66.7301 91.2347 66.7301Z" fill="#00A1FF"/>
<path d="M41.621 22.1382C35.6789 23.7158 10.6748 44.329 9.28132 51.8487C7.91411 59.3683 32.8919 88.2374 39.4387 93.2329C45.9855 98.2548 69.5172 95.573 72.462 94.8105C75.4067 94.0743 41.621 22.1382 41.621 22.1382Z" fill="#00A1FF"/>
<path d="M41.6997 91.3661C38.0451 89.1838 10.8587 59.3682 10.4381 53.952C10.0174 48.5358 32.0767 28.4747 40.3851 22.9007C48.6935 17.3267 80.8754 10.7536 84.609 11.6738C88.3688 12.5678 113.084 56.5024 111.638 61.8134C110.191 67.0982 85.3452 91.1295 75.3803 94.1005C68.2551 96.1776 45.1703 93.4432 41.6997 91.3661Z" fill="url(#paint0_linear_608_2608)"/>
<path d="M10.4383 53.952C10.4383 53.952 39.4651 52.9003 44.8288 50.2185C50.1924 47.5367 84.9247 14.7763 84.6355 11.6475C84.3463 8.51875 50.3239 16.5379 38.3608 24.3468C26.3978 32.1556 8.57155 50.0608 10.4383 53.952Z" fill="url(#paint1_linear_608_2608)"/>
<path d="M74.4339 94.3109C74.355 94.9419 69.7275 95.126 63.9169 94.9156H63.8906H63.8643C55.2404 94.6264 44.0398 93.4696 41.2791 91.6554C37.5982 89.2365 22.0331 71.3839 14.6186 61.3139C12.7781 58.8162 11.4372 56.7916 10.9114 55.6085C10.07 53.6891 39.2809 52.2956 42.1205 54.0572C44.9601 55.7925 74.6442 92.7597 74.4339 94.3109Z" fill="url(#paint2_linear_608_2608)"/>
<path d="M70.9896 47.8259C71.5155 48.5358 71.9361 49.272 72.278 50.0081C74.0133 53.7943 73.4085 57.9485 70.6741 60.0781C68.3341 61.8923 64.995 61.8134 62.0502 60.1307C60.9196 59.4734 59.8416 58.5795 58.8951 57.4752C55.4245 53.2947 55.2405 47.563 58.6585 44.7497C62.1028 41.9364 67.7031 43.3825 70.9896 47.8259Z" fill="url(#paint3_linear_608_2608)"/>
<path d="M51.2439 28.2644C52.6637 30.21 50.5341 34.2065 46.485 37.1512C42.436 40.096 37.9926 40.911 36.5728 38.9654C35.153 37.0197 37.2827 33.0233 41.3317 30.0786C45.3807 27.1075 49.8242 26.3187 51.2439 28.2644Z" fill="url(#paint4_linear_608_2608)"/>
<path d="M32.6552 73.0929C30.2626 74.5127 25.8192 72.5145 22.6378 68.5706C22.296 68.15 21.9805 67.703 21.6913 67.256C19.2987 63.6014 18.9569 59.8416 21.0866 58.4481C23.1374 57.1334 26.7657 58.4481 29.7894 61.3928C30.3415 61.9187 30.8674 62.5234 31.3669 63.1544C34.522 67.2297 35.0741 71.6468 32.6552 73.0929Z" fill="url(#paint5_linear_608_2608)"/>
<path d="M60.7093 78.6932C60.7618 78.7721 60.8407 78.851 60.8933 78.9298C63.5226 82.6634 63.6803 86.6335 61.2614 87.9481C58.8951 89.2102 54.8461 87.4749 52.0065 83.978C51.9276 83.8728 51.8224 83.7676 51.7436 83.6362C48.8514 79.8764 48.4833 75.617 50.9548 74.1972C53.4789 72.8037 57.8697 74.8282 60.7093 78.6932Z" fill="url(#paint6_linear_608_2608)"/>
<path d="M87.8695 68.2551C88.185 68.6758 88.4479 69.0964 88.6582 69.5434C90.5513 73.1455 89.8151 77.3786 86.844 79.5345C84.951 80.928 82.4795 81.2172 80.1658 80.5336C78.4305 80.0341 76.8003 78.9824 75.512 77.4574C72.4095 73.6976 72.5673 68.4391 76.0642 65.8099C79.5873 63.1281 84.9247 64.2849 87.8695 68.2551Z" fill="url(#paint7_linear_608_2608)"/>
<path d="M90.0779 30.7885C90.8667 32.0768 91.3926 33.444 91.6555 34.7849C92.3391 38.0452 91.5503 41.2002 89.4469 42.8567C87.3961 44.4605 84.5302 44.2765 82.0324 42.5675C80.9545 41.8576 79.9553 40.8584 79.114 39.6227C76.1429 35.3107 76.1429 29.6316 79.2192 27.0812C82.348 24.452 87.2909 26.2136 90.0779 30.7885Z" fill="url(#paint8_linear_608_2608)"/>
<path d="M104.434 53.8469C104.565 54.0572 104.67 54.2413 104.775 54.4516C106.695 58.2377 105.801 62.8389 102.751 65.0737C100.253 66.8879 96.9665 66.7039 94.4424 64.7845C93.7325 64.2324 93.1015 63.5751 92.5494 62.76C89.9464 58.9739 90.4723 53.7154 93.8377 51.1651C97.2031 48.5621 102.041 49.7978 104.434 53.8469Z" fill="url(#paint9_linear_608_2608)"/>
<path d="M14.0667 53.7943C14.0667 53.7943 33.4704 53.8994 42.5676 50.1133C51.6648 46.3009 79.0089 18.9042 79.0089 18.9042C79.0089 18.9042 53.0057 45.5647 49.3511 49.4034C45.6701 53.2421 51.6648 64.7319 51.6648 64.7319C51.6648 64.7319 44.3029 54.4516 40.3328 53.9257C37.3091 53.5313 14.0667 53.7943 14.0667 53.7943Z" fill="url(#paint10_linear_608_2608)"/>
<path d="M10.8064 53.9258C10.8064 53.9258 32.6817 53.5577 42.8043 48.8513C52.9268 44.145 75.5383 22.6904 75.5383 22.6904C75.5383 22.6904 52.7165 44.8286 44.8288 50.2185C36.9148 55.6085 10.8064 53.9258 10.8064 53.9258Z" fill="#0F0F0F"/>
<path d="M66.1782 94.8104C73.3823 94.4423 70.9371 88.9735 70.9371 88.9735C70.9371 88.9735 75.2754 90.4985 80.4287 89.7097C85.582 88.9472 97.0718 78.4828 97.0718 78.4828C97.0718 78.4828 88.6845 86.765 81.717 90.9455C78.8249 92.6808 75.0125 94.5475 72.5147 94.8104C70.4902 95.0208 66.1782 94.8104 66.1782 94.8104Z" fill="url(#paint11_linear_608_2608)"/>
<path d="M59.342 74.1183C59.342 74.1183 68.5444 86.2391 73.4611 88.0796C78.3777 89.92 85.4504 86.4757 90.2356 83.4521C95.0209 80.4285 100.647 75.0648 100.647 75.0648C100.647 75.0648 91.0507 83.8465 84.5302 88.4214C77.9834 92.9962 72.0413 90.7351 70.0956 88.8683C68.15 87.0016 59.342 74.1183 59.342 74.1183Z" fill="#FFCCE5"/>
<path opacity="0.5" d="M90.0779 30.7885C90.8667 32.0768 91.3926 33.444 91.6555 34.7849C89.815 32.4712 86.2392 28.8954 82.7423 31.0514C77.7731 34.1539 82.0587 42.5675 82.0587 42.5675H82.0324C80.9545 41.8576 79.9553 40.8584 79.114 39.6227C76.1429 35.3107 76.1429 29.6316 79.2192 27.0812C82.348 24.452 87.2909 26.2136 90.0779 30.7885Z" fill="url(#paint12_linear_608_2608)"/>
<path opacity="0.5" d="M70.9896 47.8259C71.5154 48.5358 71.9361 49.272 72.2779 50.0082C69.4646 47.6419 64.6005 44.7234 60.8933 48.5884C55.3456 54.3727 62.0501 60.1045 62.0501 60.1045H62.0238C60.8933 59.4472 59.8153 58.5532 58.8687 57.4489C55.3981 53.2684 55.2141 47.5367 58.6321 44.7234C62.1027 41.9364 67.703 43.3825 70.9896 47.8259Z" fill="url(#paint13_linear_608_2608)"/>
<path opacity="0.5" d="M87.8694 68.2551C88.1849 68.6758 88.4478 69.0965 88.6581 69.5434C87.0806 68.1236 81.6118 63.8117 77.8257 68.8861C73.4611 74.723 79.8502 80.297 80.1394 80.56C78.4041 80.0604 76.774 79.0087 75.4856 77.4837C72.3831 73.7239 72.5409 68.4654 76.0378 65.8362C79.5873 63.1281 84.9246 64.285 87.8694 68.2551Z" fill="url(#paint14_linear_608_2608)"/>
<path opacity="0.5" d="M104.434 53.8469C104.565 54.0572 104.67 54.2413 104.775 54.4516C102.856 53.0581 99.5957 51.7435 96.1251 55.0037C90.63 60.1308 95.2312 65.1 95.2312 65.1L94.4424 64.7319C93.7325 64.1798 93.1015 63.5225 92.5494 62.7074C89.9464 58.9213 90.4723 53.6628 93.8377 51.1125C97.2031 48.5621 102.041 49.7978 104.434 53.8469Z" fill="url(#paint15_linear_608_2608)"/>
<path d="M62.5234 60.3937C62.5234 60.3937 66.8617 62.2867 70.5163 59.6049C74.1973 56.9231 72.9878 52.1641 72.9878 52.1641C72.9878 52.1641 74.5654 57.7381 70.753 60.6829C66.9669 63.575 62.5234 60.3937 62.5234 60.3937Z" fill="#0F0F0F"/>
<path d="M77.4575 79.2454C77.4575 79.2454 81.9009 82.1638 86.2655 79.1402C90.63 76.1166 89.4994 71.7783 89.4994 71.7783C89.4994 71.7783 91.4188 76.9579 86.7387 79.9816C82.6108 82.6371 77.4575 79.2454 77.4575 79.2454Z" fill="#0F0F0F"/>
<path d="M82.532 42.8566C82.532 42.8566 85.7134 45.1178 89.5258 41.9101C93.3382 38.7024 91.1033 32.9181 91.1033 32.9181C91.1033 32.9181 93.8377 38.9916 90.1042 42.7252C86.8702 45.9591 82.532 42.8566 82.532 42.8566Z" fill="#0F0F0F"/>
<path d="M95.7834 65.5733C95.7834 65.5733 98.4916 67.2297 102.514 64.2323C106.563 61.2613 105.485 56.3709 105.485 56.3709C105.485 56.3709 107.115 61.4979 103.461 64.8897C99.8588 68.2551 95.7834 65.5733 95.7834 65.5733Z" fill="#0F0F0F"/>
<path d="M53.0845 85.1874C53.0845 85.1874 57.8434 89.3942 60.9459 87.6326C64.0484 85.871 61.7084 80.2181 61.7084 80.2181C61.7084 80.2181 64.8372 85.2926 61.498 88.3162C58.1326 91.3135 53.0845 85.1874 53.0845 85.1874Z" fill="#FFB8C0"/>
<path d="M23.9788 70.0167C23.9788 70.0167 29.0532 74.4075 32.3923 72.3567C35.7315 70.3059 32.6553 65.0737 32.6553 65.0737C32.6553 65.0737 35.8103 69.9115 33.2337 72.9352C30.6307 75.9588 25.0042 71.1473 23.9788 70.0167Z" fill="#FFB8C0"/>
<path opacity="0.5" d="M29.7894 61.3928C27.7911 60.3148 25.1619 59.3945 23.0059 60.3937C19.2724 62.129 21.2969 66.4935 21.6913 67.2297C19.2987 63.575 18.9569 59.8152 21.0866 58.4217C23.1374 57.1334 26.7657 58.448 29.7894 61.3928Z" fill="url(#paint16_linear_608_2608)"/>
<path opacity="0.5" d="M60.7093 78.6932C60.7619 78.7721 60.8408 78.851 60.8934 78.9299C60.5779 78.5618 55.3194 72.9089 51.7436 75.617C48.2467 78.2463 51.6122 83.3733 52.0328 84.0043C51.954 83.8991 51.8488 83.794 51.7699 83.6625C48.8778 79.9027 48.5097 75.6433 50.9811 74.2235C53.4789 72.8037 57.8698 74.8282 60.7093 78.6932Z" fill="url(#paint17_linear_608_2608)"/>
<path d="M37.6245 39.7542C37.6245 39.7542 40.7533 40.4904 45.7752 37.3353C50.797 34.2065 51.691 29.5001 51.691 29.5001C51.691 29.5001 52.2168 33.3651 46.4588 37.5193C40.6744 41.6472 37.6245 39.7542 37.6245 39.7542Z" fill="#0F0F0F"/>
<path d="M67.3876 60.3411C64.4954 60.3674 65.3894 52.3745 70.5427 52.5059C75.6697 52.6374 72.2254 60.2622 67.3876 60.3411Z" fill="#0F0F0F"/>
<path d="M99.4379 65.9677C96.5457 65.994 97.4397 58.0011 102.593 58.1325C107.746 58.264 104.302 65.8888 99.4379 65.9677Z" fill="#0F0F0F"/>
<path d="M88.4741 49.4298C88.6055 49.6401 88.7107 49.8241 88.8159 50.0345C90.7352 53.8206 89.8413 58.4218 86.7913 60.6566C84.2936 62.4708 81.007 62.2867 78.4829 60.3674C77.773 59.8153 77.142 59.1579 76.5899 58.3429C73.9869 54.5568 74.5128 49.2983 77.8782 46.7479C81.2436 44.1187 86.0552 45.3807 88.4741 49.4298Z" fill="url(#paint18_linear_608_2608)"/>
<path opacity="0.5" d="M88.4741 49.4298C88.6055 49.6401 88.7107 49.8241 88.8159 50.0345C86.8965 48.641 83.6363 47.3264 80.1657 50.5866C74.6705 55.7136 79.2717 60.6829 79.2717 60.6829L78.4829 60.3148C77.773 59.7627 77.142 59.1054 76.5899 58.2903C73.9869 54.5042 74.5128 49.2457 77.8782 46.6953C81.2436 44.1187 86.0552 45.3807 88.4741 49.4298Z" fill="url(#paint19_linear_608_2608)"/>
<path d="M79.824 61.1561C79.824 61.1561 82.5321 62.8126 86.5548 59.8152C90.6039 56.8442 89.5259 51.9538 89.5259 51.9538C89.5259 51.9538 91.156 57.0808 87.5014 60.4725C83.873 63.838 79.824 61.1561 79.824 61.1561Z" fill="#0F0F0F"/>
<path d="M83.4784 61.5242C80.5863 61.5505 81.4802 53.5576 86.6335 53.6891C91.7605 53.8469 88.3162 61.4717 83.4784 61.5242Z" fill="#0F0F0F"/>
<path d="M83.3734 79.5871C80.4813 79.6134 81.3752 71.6205 86.5285 71.752C91.6556 71.9097 88.2112 79.5345 83.3734 79.5871Z" fill="#0F0F0F"/>
<path opacity="0.59" d="M58.3429 88.2636C55.9766 87.9218 55.6611 80.7966 59.9205 81.5853C64.1799 82.3741 62.3394 88.842 58.3429 88.2636Z" fill="#FFA2DB"/>
<path opacity="0.59" d="M30.289 73.0403C27.9227 72.6985 27.6072 65.5733 31.8665 66.3621C36.1259 67.1508 34.2591 73.6188 30.289 73.0403Z" fill="#FFA2DB"/>
<path d="M84.5301 43.0933C81.375 42.436 83.084 35.0215 88.6054 34.9952C94.1268 34.9689 90.3407 44.3027 84.5301 43.0933Z" fill="#0F0F0F"/>
<path opacity="0.59" d="M40.7796 39.2546C36.0995 38.6235 46.5376 29.3423 50.0345 29.7367C53.5314 30.1311 45.9592 39.9382 40.7796 39.2546Z" fill="#FFA2DB"/>
<path d="M63.8643 94.9156C55.2404 94.6264 44.0398 93.4695 41.2791 91.6553C37.5981 89.2364 22.033 71.3839 14.6186 61.3139L14.5923 61.1824C14.5923 61.1824 30.9199 81.191 40.28 87.4749C49.3771 93.5484 63.0229 94.8367 63.8643 94.9156Z" fill="url(#paint20_linear_608_2608)"/>
<path d="M46.4326 45.4596C42.6728 46.6427 41.9892 39.0968 50.7445 36.6779C59.4999 34.2327 52.6113 43.5402 46.4326 45.4596Z" fill="#0F0F0F"/>
<path d="M46.5638 118.789C44.6971 114.398 39.7541 69.412 42.9618 64.2324C46.1695 59.0527 79.3768 55.4507 90.6036 55.8714C101.83 56.292 135.301 71.6205 138.114 74.9071C140.927 78.1936 134.328 134.328 129.516 138.167C124.705 142.005 86.3443 147.369 75.354 143.478C67.44 140.691 48.3254 122.97 46.5638 118.789Z" fill="url(#paint21_linear_608_2608)"/>
<path d="M42.9355 64.2324C42.9355 64.2324 69.9116 82.453 76.5635 83.5573C83.2155 84.6616 136.3 77.9307 138.088 74.9071C139.902 71.8835 103.776 56.6864 87.7641 55.8714C71.752 55.0563 43.8032 59.4997 42.9355 64.2324Z" fill="url(#paint22_linear_608_2608)"/>
<path d="M74.2761 143.057C73.7765 143.557 69.4646 140.691 64.3375 136.668H64.3112L64.2849 136.642C56.6601 130.673 47.2738 122.233 45.9854 118.789C44.2501 114.162 41.9364 87.6852 41.8575 73.6714C41.8312 70.1745 41.9627 67.4663 42.2782 66.0466C42.7778 63.7328 70.1744 81.7957 71.5942 85.24C73.014 88.7106 75.5118 141.795 74.2761 143.057Z" fill="url(#paint23_linear_608_2608)"/>
<path d="M101.857 98.6754C101.857 99.6482 101.778 100.595 101.568 101.515C100.621 106.09 97.361 109.455 93.4697 109.56C90.1569 109.666 87.1595 107.378 85.6083 103.908C85.0036 102.567 84.6092 101.042 84.5303 99.4116C84.1359 93.338 87.7643 88.0007 92.7072 87.7378C97.7028 87.4748 101.831 92.4704 101.857 98.6754Z" fill="url(#paint24_linear_608_2608)"/>
<path d="M62.1818 69.9115C67.8013 69.9115 72.3569 67.7103 72.3569 64.9949C72.3569 62.2795 67.8013 60.0782 62.1818 60.0782C56.5622 60.0782 52.0066 62.2795 52.0066 64.9949C52.0066 67.7103 56.5622 69.9115 62.1818 69.9115Z" fill="url(#paint25_linear_608_2608)"/>
<path d="M86.6862 72.83C92.3057 72.83 96.8613 70.6287 96.8613 67.9133C96.8613 65.1979 92.3057 62.9966 86.6862 62.9966C81.0666 62.9966 76.511 65.1979 76.511 67.9133C76.511 70.6287 81.0666 72.83 86.6862 72.83Z" fill="url(#paint26_linear_608_2608)"/>
<path d="M112.374 76.3269C117.993 76.3269 122.549 74.1256 122.549 71.4102C122.549 68.6948 117.993 66.4935 112.374 66.4935C106.754 66.4935 102.199 68.6948 102.199 71.4102C102.199 74.1256 106.754 76.3269 112.374 76.3269Z" fill="url(#paint27_linear_608_2608)"/>
<path d="M50.429 96.2565C47.3265 95.9673 44.6183 91.2084 44.3554 85.5292C44.3291 84.8982 44.3291 84.2935 44.3554 83.7151C44.592 78.8247 46.7743 75.17 49.6139 75.3541C52.3483 75.5118 54.7672 79.1139 55.556 83.7676C55.6874 84.609 55.7926 85.5029 55.8189 86.4232C56.003 92.1812 53.5578 96.5458 50.429 96.2565Z" fill="url(#paint28_linear_608_2608)"/>
<path d="M72.1464 119.867C72.1464 119.972 72.1464 120.104 72.1464 120.209C72.1464 120.209 72.1464 120.209 72.1464 120.235C72.0675 125.362 69.5697 129.069 66.5198 128.649C63.5225 128.228 61.0247 123.969 60.7618 118.947C60.7355 118.789 60.7355 118.631 60.7355 118.474C60.604 113.163 63.0755 109.061 66.2569 109.403C69.4909 109.745 72.1464 114.477 72.1464 119.867Z" fill="url(#paint29_linear_608_2608)"/>
<path d="M103.645 128.36C103.645 128.938 103.619 129.516 103.513 130.042C102.83 134.565 99.4117 137.904 95.2575 137.904C92.6283 137.904 90.2094 136.537 88.5529 134.407C88.5529 134.407 88.5529 134.407 88.5529 134.381C87.3172 132.777 86.5284 130.752 86.3707 128.517C86.0289 123.075 89.6572 118.421 94.5739 118.316C99.5432 118.211 103.619 122.786 103.645 128.36Z" fill="url(#paint30_linear_608_2608)"/>
<path d="M130.384 95.8358C130.253 97.5185 129.806 99.0961 129.201 100.49C127.65 103.881 124.863 106.248 121.892 106.353C118.973 106.458 116.502 104.381 115.345 101.199C114.845 99.8323 114.609 98.281 114.635 96.5983C114.793 90.7351 118.526 85.5818 123.022 85.2926C127.571 85.0296 130.884 89.8412 130.384 95.8358Z" fill="url(#paint31_linear_608_2608)"/>
<path d="M128.176 126.23C128.149 126.493 128.123 126.729 128.07 126.992C127.308 131.699 123.469 135.274 119.236 135.274C115.792 135.274 112.926 132.908 111.901 129.516C111.611 128.57 111.48 127.518 111.506 126.44C111.664 121.287 115.582 116.87 120.34 116.765C125.126 116.659 128.675 120.971 128.176 126.23Z" fill="url(#paint32_linear_608_2608)"/>
<path d="M46.3535 66.4935C46.3535 66.4935 63.8643 79.4031 74.6179 81.9798C85.3715 84.5301 128.254 77.773 128.254 77.773C128.254 77.773 87.1068 84.7668 81.2435 85.8185C75.3803 86.8702 73.2244 101.226 73.2244 101.226C73.2244 101.226 73.3295 87.0542 70.0693 83.9517C67.5715 81.6117 46.3535 66.4935 46.3535 66.4935Z" fill="url(#paint33_linear_608_2608)"/>
<path d="M43.2773 64.469C43.2773 64.469 63.3122 78.588 75.617 81.0069C87.8956 83.4258 122.549 78.9035 122.549 78.9035C122.549 78.9035 87.2383 83.8991 76.5372 83.5573C65.8362 83.2155 43.2773 64.469 43.2773 64.469Z" fill="#0F0F0F"/>
<path d="M66.4409 138.088C73.1981 142.505 74.5916 135.932 74.5916 135.932C74.5916 135.932 77.5363 140.191 82.6896 142.873C87.8692 145.555 105.196 143.688 105.196 143.688C105.196 143.688 92.1286 145.66 83.0577 144.845C79.2979 144.503 74.6179 143.688 72.1727 142.268C70.227 141.138 66.4409 138.088 66.4409 138.088Z" fill="url(#paint34_linear_608_2608)"/>
<path d="M73.9343 114.793C73.9343 114.793 74.2761 131.856 77.5101 136.773C80.7441 141.69 89.4206 143.215 95.757 143.662C102.094 144.082 110.744 142.952 110.744 142.952C110.744 142.952 96.2566 144.582 87.3172 144.398C78.3777 144.214 74.4865 138.245 73.9606 135.274C73.3822 132.303 73.9343 114.793 73.9343 114.793Z" fill="#FFCCE5"/>
<path opacity="0.5" d="M130.384 95.8358C130.253 97.5185 129.806 99.0961 129.201 100.49C129.069 97.1767 128.176 91.5765 123.574 91.2347C117.028 90.7614 115.345 101.226 115.345 101.226L115.319 101.199C114.819 99.8323 114.582 98.281 114.609 96.5983C114.766 90.7351 118.5 85.5818 122.996 85.2926C127.571 85.0296 130.884 89.8412 130.384 95.8358Z" fill="url(#paint35_linear_608_2608)"/>
<path opacity="0.5" d="M101.857 98.6754C101.857 99.6483 101.778 100.595 101.568 101.515C100.569 97.5186 98.0971 91.6554 92.1813 92.7334C83.3471 94.3109 85.6082 103.934 85.6082 103.934H85.5819C84.9772 102.593 84.5828 101.068 84.5039 99.4379C84.1095 93.3644 87.7379 88.027 92.6809 87.7641C97.7027 87.4749 101.831 92.4704 101.857 98.6754Z" fill="url(#paint36_linear_608_2608)"/>
<path opacity="0.5" d="M103.645 128.36C103.645 128.938 103.618 129.516 103.513 130.042C103.04 127.702 100.937 120.209 94.1269 122.286C86.318 124.679 88.4214 133.96 88.5266 134.381C87.2908 132.777 86.5021 130.752 86.3443 128.517C86.0025 123.075 89.6309 118.421 94.5475 118.316C99.5431 118.211 103.618 122.786 103.645 128.36Z" fill="url(#paint37_linear_608_2608)"/>
<path opacity="0.5" d="M128.176 126.23C128.149 126.493 128.123 126.729 128.07 126.992C127.255 124.468 125.178 121.129 119.841 121.786C111.48 122.812 112.347 130.358 112.347 130.358L111.874 129.516C111.585 128.57 111.454 127.518 111.48 126.44C111.638 121.287 115.555 116.87 120.314 116.765C125.126 116.659 128.675 120.971 128.176 126.23Z" fill="url(#paint38_linear_608_2608)"/>
<path d="M85.8975 104.486C85.8975 104.486 88.5793 109.061 93.68 109.061C98.7807 109.061 100.832 103.934 100.832 103.934C100.832 103.934 98.5704 110.034 93.1805 110.165C87.7905 110.297 85.8975 104.486 85.8975 104.486Z" fill="#0F0F0F"/>
<path d="M86.9753 131.409C86.9753 131.409 89.0787 137.01 95.0208 137.141C100.963 137.273 102.83 132.619 102.83 132.619C102.83 132.619 101.147 138.587 94.9157 138.219C89.3942 137.904 86.9753 131.409 86.9753 131.409Z" fill="#0F0F0F"/>
<path d="M115.582 101.804C115.582 101.804 116.975 105.932 122.549 105.564C128.123 105.196 129.911 98.4388 129.911 98.4388C129.911 98.4388 128.386 105.748 122.523 106.668C117.475 107.483 115.582 101.804 115.582 101.804Z" fill="#0F0F0F"/>
<path d="M112.584 131.147C112.584 131.147 113.951 134.433 119.578 134.381C125.205 134.354 127.466 129.227 127.466 129.227C127.466 129.227 125.546 134.959 120.025 135.616C114.504 136.274 112.584 131.147 112.584 131.147Z" fill="#0F0F0F"/>
<path d="M60.9458 120.708C60.9458 120.708 62.4708 127.65 66.4409 128.123C70.4111 128.57 72.0412 121.918 72.0412 121.918C72.0412 121.918 71.5153 128.596 66.4935 129.096C61.4716 129.595 60.9458 120.708 60.9458 120.708Z" fill="#FFB8C0"/>
<path d="M44.592 87.7378C44.592 87.7378 46.301 95.0471 50.6656 95.4152C55.0301 95.7833 55.7137 88.9998 55.7137 88.9998C55.7137 88.9998 55.3719 95.4678 51.0337 96.4932C46.7217 97.5186 44.8024 89.4468 44.592 87.7378Z" fill="#FFB8C0"/>
<path opacity="0.5" d="M55.556 83.7677C54.4517 81.4539 52.6901 78.9036 50.0608 78.404C45.5385 77.5101 44.4869 82.7948 44.3291 83.7414C44.5657 78.851 46.748 75.1963 49.5876 75.3804C52.3483 75.5118 54.7672 79.1139 55.556 83.7677Z" fill="url(#paint39_linear_608_2608)"/>
<path opacity="0.5" d="M72.1465 119.867C72.1465 119.972 72.1465 120.104 72.1465 120.209C72.0939 119.683 71.0948 111.059 66.0466 111.164C61.1562 111.243 60.7881 118.106 60.7881 118.947C60.7618 118.789 60.7618 118.631 60.7618 118.474C60.6304 113.163 63.1019 109.061 66.2833 109.403C69.4909 109.745 72.1465 114.477 72.1465 119.867Z" fill="url(#paint40_linear_608_2608)"/>
<path d="M76.9316 69.3331C76.9316 69.3331 79.298 72.0675 85.8974 72.5408C92.4968 73.0141 96.4406 69.3331 96.4406 69.3331C96.4406 69.3331 94.3635 73.1718 86.4232 73.1455C78.4566 73.0929 76.9316 69.3331 76.9316 69.3331Z" fill="#0F0F0F"/>
<path d="M52.1643 65.8362C52.1643 65.8362 53.7156 69.0176 61.9977 69.0702C70.2798 69.1227 72.0677 66.2043 72.0677 66.2043C72.0677 66.2043 70.0957 69.9115 62.1291 70.1219C54.1099 70.3848 52.2958 66.4409 52.1643 65.8362Z" fill="#0F0F0F"/>
<path d="M102.199 71.4102C102.199 71.4102 102.435 75.9588 112.637 75.6959C122.838 75.433 122.575 71.4102 122.575 71.4102C122.575 71.4102 123.049 76.0114 112.874 76.4846C102.698 76.9316 102.041 72.2253 102.199 71.4102Z" fill="#0F0F0F"/>
<path d="M90.3145 107.641C87.6852 105.774 93.7851 99.0961 98.3337 102.619C102.909 106.142 94.7579 110.77 90.3145 107.641Z" fill="#0F0F0F"/>
<path d="M115.66 133.907C113.031 132.04 119.131 125.362 123.68 128.885C128.254 132.409 120.104 137.036 115.66 133.907Z" fill="#0F0F0F"/>
<path d="M92.0762 135.616C89.447 133.75 95.5468 127.071 100.095 130.594C104.67 134.144 96.5196 138.771 92.0762 135.616Z" fill="#0F0F0F"/>
<path opacity="0.59" d="M63.7066 126.966C61.7872 125.099 66.2306 118.421 69.5435 121.944C72.83 125.494 66.9142 130.121 63.7066 126.966Z" fill="#FFA2DB"/>
<path opacity="0.59" d="M48.2993 94.6527C46.38 92.786 50.8234 86.1077 54.1363 89.6309C57.4491 93.1541 51.5333 97.8078 48.2993 94.6527Z" fill="#FFA2DB"/>
<path d="M117.238 103.356C114.819 100.674 121.234 95.0734 126.283 98.7017C131.304 102.33 121.708 108.272 117.238 103.356Z" fill="#0F0F0F"/>
<path opacity="0.59" d="M105.459 74.0131C100.779 71.5679 117.106 68.0448 120.025 70.7266C122.943 73.4084 114.477 78.7195 105.459 74.0131Z" fill="#FFA2DB"/>
<path opacity="0.59" d="M80.1395 70.9632C76.3271 67.3086 91.8922 65.7836 94.8107 68.4392C97.7291 71.121 84.3726 75.0123 80.1395 70.9632Z" fill="#FFA2DB"/>
<path opacity="0.59" d="M55.2142 66.9142C51.4018 63.2596 67.782 62.7337 70.7005 65.4155C73.5926 68.0711 59.4473 70.9632 55.2142 66.9142Z" fill="#FFA2DB"/>
<path d="M64.3112 136.642C56.6864 130.673 47.3 122.233 46.0117 118.789C44.2764 114.162 41.9627 87.6852 41.8838 73.6714L41.9364 73.5399C41.9364 73.5399 43.5139 102.435 47.8522 114.319C52.059 125.836 63.6013 136.011 64.3112 136.642Z" fill="url(#paint41_linear_608_2608)"/>
<path d="M81.1647 80.3234C76.9842 78.9036 81.3225 71.6206 90.8666 75.1963C100.411 78.7721 88.027 82.6371 81.1647 80.3234Z" fill="#0F0F0F"/>
<defs>
<linearGradient id="paint0_linear_608_2608" x1="86.9312" y1="87.1553" x2="40.175" y2="23.0064" gradientUnits="userSpaceOnUse">
<stop stop-color="#FF83D0"/>
<stop offset="0.0857494" stop-color="#FF8BD0"/>
<stop offset="0.4626" stop-color="#FFABCF"/>
<stop offset="0.7808" stop-color="#FFBECE"/>
<stop offset="1" stop-color="#FFC5CE"/>
</linearGradient>
<linearGradient id="paint1_linear_608_2608" x1="54.9653" y1="42.9577" x2="40.2981" y2="22.8345" gradientUnits="userSpaceOnUse">
<stop stop-color="#FFE0F4"/>
<stop offset="0.2671" stop-color="#FFE2F8"/>
<stop offset="1" stop-color="#FFE5FF"/>
</linearGradient>
<linearGradient id="paint2_linear_608_2608" x1="62.9019" y1="102.765" x2="22.3075" y2="47.0697" gradientUnits="userSpaceOnUse">
<stop stop-color="#E293AC"/>
<stop offset="0.2287" stop-color="#E28CA7"/>
<stop offset="0.5605" stop-color="#E2799A"/>
<stop offset="0.9536" stop-color="#E25984"/>
<stop offset="1" stop-color="#E25581"/>
</linearGradient>
<linearGradient id="paint3_linear_608_2608" x1="70.4615" y1="60.235" x2="58.9911" y2="44.4978" gradientUnits="userSpaceOnUse">
<stop stop-color="#FF2022"/>
<stop offset="0.9022" stop-color="#7C0063"/>
</linearGradient>
<linearGradient id="paint4_linear_608_2608" x1="46.4887" y1="37.153" x2="41.3279" y2="30.0725" gradientUnits="userSpaceOnUse">
<stop stop-color="#FF2022"/>
<stop offset="0.9022" stop-color="#7C0063"/>
</linearGradient>
<linearGradient id="paint5_linear_608_2608" x1="32.4155" y1="73.2888" x2="21.4194" y2="58.2023" gradientUnits="userSpaceOnUse">
<stop stop-color="#BF2022"/>
<stop offset="0.9022" stop-color="#720063"/>
</linearGradient>
<linearGradient id="paint6_linear_608_2608" x1="61.2291" y1="88.042" x2="51.0862" y2="74.126" gradientUnits="userSpaceOnUse">
<stop stop-color="#BF2022"/>
<stop offset="0.9022" stop-color="#720063"/>
</linearGradient>
<linearGradient id="paint7_linear_608_2608" x1="86.6607" y1="79.6897" x2="76.3705" y2="65.5716" gradientUnits="userSpaceOnUse">
<stop stop-color="#FF2022"/>
<stop offset="0.9022" stop-color="#7C0063"/>
</linearGradient>
<linearGradient id="paint8_linear_608_2608" x1="89.935" y1="42.4885" x2="78.8703" y2="27.3079" gradientUnits="userSpaceOnUse">
<stop stop-color="#FF2022"/>
<stop offset="0.9022" stop-color="#7C0063"/>
</linearGradient>
<linearGradient id="paint9_linear_608_2608" x1="103.198" y1="64.7326" x2="93.4735" y2="51.3902" gradientUnits="userSpaceOnUse">
<stop stop-color="#FF2022"/>
<stop offset="0.9022" stop-color="#7C0063"/>
</linearGradient>
<linearGradient id="paint10_linear_608_2608" x1="23.1945" y1="66.3001" x2="82.2169" y2="23.2804" gradientUnits="userSpaceOnUse">
<stop stop-color="#FF93D1"/>
<stop offset="0.0464227" stop-color="#FF97D3"/>
<stop offset="0.4395" stop-color="#FFB7E5"/>
<stop offset="0.7713" stop-color="#FFCAEF"/>
<stop offset="1" stop-color="#FFD1F3"/>
</linearGradient>
<linearGradient id="paint11_linear_608_2608" x1="83.788" y1="89.6569" x2="79.0063" y2="83.0965" gradientUnits="userSpaceOnUse">
<stop stop-color="#E25581"/>
<stop offset="0.0464227" stop-color="#E25984"/>
<stop offset="0.4395" stop-color="#E2799A"/>
<stop offset="0.7713" stop-color="#E28CA7"/>
<stop offset="1" stop-color="#E293AC"/>
</linearGradient>
<linearGradient id="paint12_linear_608_2608" x1="87.2374" y1="38.7874" x2="78.8703" y2="27.3079" gradientUnits="userSpaceOnUse">
<stop stop-color="white"/>
<stop offset="0.1016" stop-color="#FAF3F6"/>
<stop offset="0.2836" stop-color="#EDD4DD"/>
<stop offset="0.5249" stop-color="#D7A2B6"/>
<stop offset="0.8131" stop-color="#B95D7F"/>
<stop offset="1" stop-color="#A42D59"/>
</linearGradient>
<linearGradient id="paint13_linear_608_2608" x1="67.497" y1="56.1678" x2="58.991" y2="44.4978" gradientUnits="userSpaceOnUse">
<stop stop-color="white"/>
<stop offset="0.1016" stop-color="#FAF3F6"/>
<stop offset="0.2836" stop-color="#EDD4DD"/>
<stop offset="0.5249" stop-color="#D7A2B6"/>
<stop offset="0.8131" stop-color="#B95D7F"/>
<stop offset="1" stop-color="#A42D59"/>
</linearGradient>
<linearGradient id="paint14_linear_608_2608" x1="84.8133" y1="77.1551" x2="76.3704" y2="65.5716" gradientUnits="userSpaceOnUse">
<stop stop-color="white"/>
<stop offset="0.1016" stop-color="#FAF3F6"/>
<stop offset="0.2836" stop-color="#EDD4DD"/>
<stop offset="0.5249" stop-color="#D7A2B6"/>
<stop offset="0.8131" stop-color="#B95D7F"/>
<stop offset="1" stop-color="#A42D59"/>
</linearGradient>
<linearGradient id="paint15_linear_608_2608" x1="100.611" y1="61.1833" x2="93.4735" y2="51.3902" gradientUnits="userSpaceOnUse">
<stop stop-color="white"/>
<stop offset="0.1016" stop-color="#FAF3F6"/>
<stop offset="0.2836" stop-color="#EDD4DD"/>
<stop offset="0.5249" stop-color="#D7A2B6"/>
<stop offset="0.8131" stop-color="#B95D7F"/>
<stop offset="1" stop-color="#A42D59"/>
</linearGradient>
<linearGradient id="paint16_linear_608_2608" x1="25.7532" y1="64.3329" x2="21.3315" y2="58.2664" gradientUnits="userSpaceOnUse">
<stop stop-color="white"/>
<stop offset="0.1016" stop-color="#FAF3F6"/>
<stop offset="0.2836" stop-color="#EDD4DD"/>
<stop offset="0.5249" stop-color="#D7A2B6"/>
<stop offset="0.8131" stop-color="#B95D7F"/>
<stop offset="1" stop-color="#A42D59"/>
</linearGradient>
<linearGradient id="paint17_linear_608_2608" x1="56.7859" y1="81.9459" x2="51.0862" y2="74.126" gradientUnits="userSpaceOnUse">
<stop stop-color="white"/>
<stop offset="0.1016" stop-color="#FAF3F6"/>
<stop offset="0.2836" stop-color="#EDD4DD"/>
<stop offset="0.5249" stop-color="#D7A2B6"/>
<stop offset="0.8131" stop-color="#B95D7F"/>
<stop offset="1" stop-color="#A42D59"/>
</linearGradient>
<linearGradient id="paint18_linear_608_2608" x1="87.235" y1="60.3068" x2="77.5101" y2="46.9644" gradientUnits="userSpaceOnUse">
<stop stop-color="#FF2022"/>
<stop offset="0.9022" stop-color="#7C0063"/>
</linearGradient>
<linearGradient id="paint19_linear_608_2608" x1="84.6479" y1="56.7574" x2="77.5101" y2="46.9644" gradientUnits="userSpaceOnUse">
<stop stop-color="white"/>
<stop offset="0.1016" stop-color="#FAF3F6"/>
<stop offset="0.2836" stop-color="#EDD4DD"/>
<stop offset="0.5249" stop-color="#D7A2B6"/>
<stop offset="0.8131" stop-color="#B95D7F"/>
<stop offset="1" stop-color="#A42D59"/>
</linearGradient>
<linearGradient id="paint20_linear_608_2608" x1="31.1302" y1="83.9541" x2="47.301" y2="72.1677" gradientUnits="userSpaceOnUse">
<stop stop-color="#804FB9"/>
<stop offset="0.0268558" stop-color="#7B4CB2"/>
<stop offset="0.2851" stop-color="#503173"/>
<stop offset="0.5206" stop-color="#2D1C42"/>
<stop offset="0.7258" stop-color="#150D1E"/>
<stop offset="0.8925" stop-color="#060308"/>
<stop offset="1"/>
</linearGradient>
<linearGradient id="paint21_linear_608_2608" x1="90.3201" y1="144.844" x2="90.3201" y2="55.8431" gradientUnits="userSpaceOnUse">
<stop stop-color="#FFA9DA"/>
<stop offset="0.2481" stop-color="#FFB7E3"/>
<stop offset="0.6928" stop-color="#FFCAEF"/>
<stop offset="1" stop-color="#FFD1F3"/>
</linearGradient>
<linearGradient id="paint22_linear_608_2608" x1="90.5446" y1="83.6882" x2="90.5446" y2="55.7687" gradientUnits="userSpaceOnUse">
<stop stop-color="#FFE0F4"/>
<stop offset="0.2671" stop-color="#FFE2F8"/>
<stop offset="1" stop-color="#FFE5FF"/>
</linearGradient>
<linearGradient id="paint23_linear_608_2608" x1="58.2406" y1="143.119" x2="58.2406" y2="65.8483" gradientUnits="userSpaceOnUse">
<stop stop-color="#E293AC"/>
<stop offset="0.2287" stop-color="#E28CA7"/>
<stop offset="0.5605" stop-color="#E2799A"/>
<stop offset="0.9536" stop-color="#E25984"/>
<stop offset="1" stop-color="#E25581"/>
</linearGradient>
<linearGradient id="paint24_linear_608_2608" x1="93.1768" y1="109.576" x2="93.1768" y2="87.7417" gradientUnits="userSpaceOnUse">
<stop stop-color="#FF2022"/>
<stop offset="0.9022" stop-color="#7C0063"/>
</linearGradient>
<linearGradient id="paint25_linear_608_2608" x1="62.1866" y1="69.9096" x2="62.1866" y2="60.0861" gradientUnits="userSpaceOnUse">
<stop stop-color="#FF2022"/>
<stop offset="0.9022" stop-color="#7C0063"/>
</linearGradient>
<linearGradient id="paint26_linear_608_2608" x1="86.6978" y1="72.8304" x2="86.6978" y2="63.0069" gradientUnits="userSpaceOnUse">
<stop stop-color="#FF2022"/>
<stop offset="0.9022" stop-color="#7C0063"/>
</linearGradient>
<linearGradient id="paint27_linear_608_2608" x1="112.379" y1="76.3172" x2="112.379" y2="66.4937" gradientUnits="userSpaceOnUse">
<stop stop-color="#FF2022"/>
<stop offset="0.9022" stop-color="#7C0063"/>
</linearGradient>
<linearGradient id="paint28_linear_608_2608" x1="50.0832" y1="96.2797" x2="50.0832" y2="75.3484" gradientUnits="userSpaceOnUse">
<stop stop-color="#BF2022"/>
<stop offset="0.9022" stop-color="#720063"/>
</linearGradient>
<linearGradient id="paint29_linear_608_2608" x1="66.4486" y1="128.675" x2="66.4486" y2="109.368" gradientUnits="userSpaceOnUse">
<stop stop-color="#BF2022"/>
<stop offset="0.9022" stop-color="#720063"/>
</linearGradient>
<linearGradient id="paint30_linear_608_2608" x1="95.0076" y1="137.901" x2="95.0076" y2="118.313" gradientUnits="userSpaceOnUse">
<stop stop-color="#FF2022"/>
<stop offset="0.9022" stop-color="#7C0063"/>
</linearGradient>
<linearGradient id="paint31_linear_608_2608" x1="122.541" y1="106.355" x2="122.541" y2="85.2934" gradientUnits="userSpaceOnUse">
<stop stop-color="#FF2022"/>
<stop offset="0.9022" stop-color="#7C0063"/>
</linearGradient>
<linearGradient id="paint32_linear_608_2608" x1="119.87" y1="135.269" x2="119.87" y2="116.758" gradientUnits="userSpaceOnUse">
<stop stop-color="#FF2022"/>
<stop offset="0.9022" stop-color="#7C0063"/>
</linearGradient>
<linearGradient id="paint33_linear_608_2608" x1="46.3425" y1="83.8573" x2="128.232" y2="83.8573" gradientUnits="userSpaceOnUse">
<stop stop-color="#FF93D1"/>
<stop offset="0.0464227" stop-color="#FF97D3"/>
<stop offset="0.4395" stop-color="#FFB7E5"/>
<stop offset="0.7713" stop-color="#FFCAEF"/>
<stop offset="1" stop-color="#FFD1F3"/>
</linearGradient>
<linearGradient id="paint34_linear_608_2608" x1="85.8228" y1="145.035" x2="85.8228" y2="135.934" gradientUnits="userSpaceOnUse">
<stop stop-color="#E25581"/>
<stop offset="0.0464227" stop-color="#E25984"/>
<stop offset="0.4395" stop-color="#E2799A"/>
<stop offset="0.7713" stop-color="#E28CA7"/>
<stop offset="1" stop-color="#E293AC"/>
</linearGradient>
<linearGradient id="paint35_linear_608_2608" x1="122.541" y1="101.221" x2="122.541" y2="85.2934" gradientUnits="userSpaceOnUse">
<stop stop-color="white"/>
<stop offset="0.1016" stop-color="#FAF3F6"/>
<stop offset="0.2836" stop-color="#EDD4DD"/>
<stop offset="0.5249" stop-color="#D7A2B6"/>
<stop offset="0.8131" stop-color="#B95D7F"/>
<stop offset="1" stop-color="#A42D59"/>
</linearGradient>
<linearGradient id="paint36_linear_608_2608" x1="93.1768" y1="103.933" x2="93.1768" y2="87.7417" gradientUnits="userSpaceOnUse">
<stop stop-color="white"/>
<stop offset="0.1016" stop-color="#FAF3F6"/>
<stop offset="0.2836" stop-color="#EDD4DD"/>
<stop offset="0.5249" stop-color="#D7A2B6"/>
<stop offset="0.8131" stop-color="#B95D7F"/>
<stop offset="1" stop-color="#A42D59"/>
</linearGradient>
<linearGradient id="paint37_linear_608_2608" x1="95.0076" y1="134.385" x2="95.0076" y2="118.313" gradientUnits="userSpaceOnUse">
<stop stop-color="white"/>
<stop offset="0.1016" stop-color="#FAF3F6"/>
<stop offset="0.2836" stop-color="#EDD4DD"/>
<stop offset="0.5249" stop-color="#D7A2B6"/>
<stop offset="0.8131" stop-color="#B95D7F"/>
<stop offset="1" stop-color="#A42D59"/>
</linearGradient>
<linearGradient id="paint38_linear_608_2608" x1="119.87" y1="130.345" x2="119.87" y2="116.758" gradientUnits="userSpaceOnUse">
<stop stop-color="white"/>
<stop offset="0.1016" stop-color="#FAF3F6"/>
<stop offset="0.2836" stop-color="#EDD4DD"/>
<stop offset="0.5249" stop-color="#D7A2B6"/>
<stop offset="0.8131" stop-color="#B95D7F"/>
<stop offset="1" stop-color="#A42D59"/>
</linearGradient>
<linearGradient id="paint39_linear_608_2608" x1="49.961" y1="83.765" x2="49.961" y2="75.3485" gradientUnits="userSpaceOnUse">
<stop stop-color="white"/>
<stop offset="0.1016" stop-color="#FAF3F6"/>
<stop offset="0.2836" stop-color="#EDD4DD"/>
<stop offset="0.5249" stop-color="#D7A2B6"/>
<stop offset="0.8131" stop-color="#B95D7F"/>
<stop offset="1" stop-color="#A42D59"/>
</linearGradient>
<linearGradient id="paint40_linear_608_2608" x1="66.4486" y1="120.217" x2="66.4486" y2="109.368" gradientUnits="userSpaceOnUse">
<stop stop-color="white"/>
<stop offset="0.1016" stop-color="#FAF3F6"/>
<stop offset="0.2836" stop-color="#EDD4DD"/>
<stop offset="0.5249" stop-color="#D7A2B6"/>
<stop offset="0.8131" stop-color="#B95D7F"/>
<stop offset="1" stop-color="#A42D59"/>
</linearGradient>
<linearGradient id="paint41_linear_608_2608" x1="41.8744" y1="105.094" x2="64.3131" y2="105.094" gradientUnits="userSpaceOnUse">
<stop stop-color="#804FB9"/>
<stop offset="0.0268558" stop-color="#7B4CB2"/>
<stop offset="0.2851" stop-color="#503173"/>
<stop offset="0.5206" stop-color="#2D1C42"/>
<stop offset="0.7258" stop-color="#150D1E"/>
<stop offset="0.8925" stop-color="#060308"/>
<stop offset="1"/>
</linearGradient>
</defs>
</svg>
