<svg width="204" height="223" viewBox="0 0 204 223" fill="none" xmlns="http://www.w3.org/2000/svg">
<path d="M51.8793 39.7527C51.8793 39.7527 47.3438 46.027 49.062 48.961C50.7499 51.9066 63.1034 54.7386 68.5023 62.54C73.9013 70.3415 63.0724 79.7619 62.1825 81.08C61.281 82.3676 47.1059 79.6064 33.6256 95.939C20.1267 112.314 28.6308 130.122 36.2564 137.453C36.2564 137.453 34.1569 178.549 73.9855 175.343L81.2442 179.99C81.2442 179.99 90.4563 213.015 125.513 199.186L61.1715 104.002L76.4923 72.7315L73.3233 53.6447L51.8793 39.7527Z" fill="#00A1FF"/>
<path d="M109.463 81.2959C81.2938 71.9714 55.2131 106.567 73.0765 133.134C90.94 159.702 131.182 142.384 130.776 119.587C130.295 91.4108 115.019 83.1416 109.463 81.2959Z" fill="url(#paint0_radial_608_2511)"/>
<path d="M140.55 95.9548C112.381 86.6303 86.2999 121.226 104.163 147.793C122.027 174.36 162.269 157.043 161.863 134.246C161.371 106.039 146.064 97.7817 140.55 95.9548Z" fill="url(#paint1_radial_608_2511)"/>
<path d="M80.8207 109.304C52.6517 99.9792 26.571 134.574 44.4344 161.142C62.2979 187.709 102.54 170.392 102.134 147.595C101.623 119.43 86.3469 111.161 80.8207 109.304Z" fill="url(#paint2_radial_608_2511)"/>
<path d="M145.056 164.552L145.067 164.582C145.581 167.56 145.861 170.836 145.937 174.4C146.343 197.197 106.132 214.503 88.2378 187.947C86.8344 185.834 85.6976 183.689 84.7971 181.522L84.7854 181.492C74.5136 156.164 98.6641 127.542 124.594 136.121C129.428 137.72 141.656 144.228 145.056 164.552Z" fill="url(#paint3_radial_608_2511)"/>
<path d="M122.263 61.7356C121.771 69.9126 108.683 79.5367 108.683 79.5367C108.683 79.5367 105.852 77.0646 99.3076 75.7371C99.3076 75.7371 99.3076 75.7371 99.2772 75.7488C99.2772 75.7488 99.2772 75.7488 99.2468 75.7605C96.2612 75.1613 92.4803 74.7625 87.8501 74.9685C83.3531 75.1583 79.4647 77.2077 76.2678 79.9687C68.9496 86.2637 65.1471 96.2685 65.1471 96.2685C65.1471 96.2685 57.1054 86.3061 58.9905 86.0367C60.4756 85.816 70.2517 76.8341 70.7861 68.2222C70.9428 65.7203 70.2952 63.2129 68.4219 60.9662C63.2295 54.7948 58.0432 52.0048 54.3483 49.8289C52.1467 48.5453 50.4805 47.4751 49.654 46.0479C48.202 43.535 60.262 27.9564 68.9781 27.1252C71.0314 26.9307 72.8047 28.553 74.4064 31.1829L74.4718 31.2624C78.9405 38.5485 82.5929 53.4384 89.6449 59.0012C90.7875 59.8886 92.0239 60.5655 93.3682 60.8872C106.051 63.9416 122.263 61.7356 122.263 61.7356Z" fill="url(#paint4_linear_608_2511)"/>
<path d="M49.6728 46.0058C48.9099 51.5658 66.1809 47.2095 71.8399 39.7718C77.499 32.334 72.277 27.8135 68.9665 27.0948C65.7051 26.3223 51.1608 35.4235 49.6728 46.0058Z" fill="url(#paint5_linear_608_2511)"/>
<path d="M95.166 120.058C94.8601 124.536 93.0086 128.804 90.1241 132.561C90.1241 132.561 90.1241 132.561 90.0937 132.573C78.3473 147.787 49.2791 154.4 34.9277 133.079C26.5704 120.656 27.7315 107.13 34.2021 97.0783C41.6118 85.6552 55.9552 78.7589 71.153 83.1861C79.3328 85.5955 96.7357 97.4094 95.166 120.058Z" fill="url(#paint6_radial_608_2511)"/>
<path d="M169.156 87.7744C169.174 88.6396 169.15 89.4861 169.119 90.405L169.121 90.6833C169.078 91.5719 169.016 92.5025 168.894 93.4564C166.175 119.476 125.227 134.133 107.363 107.566C100.718 97.6962 99.9934 87.4392 103.149 78.6592C108.54 63.7897 125.23 53.098 143.719 55.7394C152.798 57.0366 168.983 65.585 169.156 87.7744Z" fill="url(#paint7_radial_608_2511)"/>
<path opacity="0.5" d="M169.18 87.8352L169.149 90.3934L169.151 90.6716C169.108 91.5602 169.046 92.4908 168.924 93.4448C166.205 119.464 125.257 134.122 107.394 107.554C100.748 97.6845 100.024 87.4276 103.18 78.6475C103.18 78.6475 102.593 112.047 133.68 112.787C164.041 113.457 168.945 89.0416 169.18 87.8352Z" fill="url(#paint8_linear_608_2511)"/>
<path opacity="0.5" d="M90.0937 132.573C78.3473 147.787 49.2791 154.4 34.9276 133.079C26.5703 120.656 27.7315 107.13 34.2021 97.0783C34.2021 97.0783 25.5396 112.784 37.2048 128.647C48.9237 144.56 68.4168 149.363 90.0937 132.573Z" fill="url(#paint9_linear_608_2511)"/>
<path d="M128.677 154.682C128.749 158.143 127.714 161.54 125.904 164.641L125.885 164.683C116.734 180.297 87.4598 189.466 72.6996 170.081C62.4936 156.658 62.9407 143.998 68.8285 134.519C68.8472 134.477 68.8472 134.477 68.8472 134.477C76.7656 121.743 94.4787 114.81 109.222 119.69C114.267 121.383 128.223 128.938 128.677 154.682Z" fill="url(#paint10_radial_608_2511)"/>
<path opacity="0.3" d="M77.6706 131.651C68.585 142.252 87.3955 166.468 109.281 158.318C131.167 150.169 119.745 124.934 109.305 121.542C98.8649 118.151 86.6695 121.188 77.6706 131.651Z" fill="#97C7FF"/>
<path opacity="0.3" d="M39.3544 93.7767C30.2689 104.377 49.091 128.624 70.9653 120.444C92.8513 112.294 81.4289 87.0589 70.9888 83.6676C60.5487 80.2763 48.3533 83.3139 39.3544 93.7767Z" fill="#97C7FF"/>
<path opacity="0.3" d="M117.803 67.3879C108.718 77.9886 127.528 102.205 149.414 94.0551C171.3 85.9056 159.878 60.6702 149.438 57.2789C138.997 53.8875 126.802 56.9251 117.803 67.3879Z" fill="#97C7FF"/>
<path opacity="0.5" d="M125.855 164.695C116.704 180.309 87.4295 189.478 72.6693 170.092C62.4632 156.669 62.9103 144.01 68.7981 134.531C68.4815 135.524 62.4608 154.298 76.2777 167.313C90.4404 180.684 116.903 177.372 125.855 164.695Z" fill="url(#paint11_linear_608_2511)"/>
<path opacity="0.5" d="M145.037 164.594C145.551 167.571 145.831 170.848 145.907 174.411C146.313 197.209 106.101 214.515 88.2074 187.959C86.804 185.846 85.6673 183.7 84.7667 181.534C85.8148 183.539 95.1063 199.58 119.963 195.175C145.772 190.614 145.108 165.962 145.037 164.594Z" fill="url(#paint12_linear_608_2511)"/>
<path opacity="0.5" d="M99.2351 75.7301C96.2496 75.1309 92.4687 74.7321 87.8385 74.9381C83.3415 75.1279 79.4531 77.1773 76.2562 79.9383C77.4556 77.6992 78.6113 74.7095 78.6285 71.389C78.6795 66.9741 74.0959 67.3017 70.7628 68.1614C70.9196 65.6595 70.2719 63.1521 68.3986 60.9054C63.2062 54.734 58.02 51.944 54.325 49.7681C56.907 49.4058 63.3365 48.1609 69.6078 43.5929C77.6763 37.7079 74.3831 31.1221 74.3831 31.1221L74.4485 31.2016C78.9172 38.4877 82.5696 53.3776 89.6216 58.9404C88.2061 59.7972 86.6705 61.4327 86.0572 64.5632C84.8376 70.7518 98.2604 75.3714 99.2351 75.7301Z" fill="url(#paint13_linear_608_2511)"/>
<path opacity="0.5" d="M51.0191 102.908C48.5422 113.276 66.4429 113.109 66.1175 103.71C65.7921 94.3118 53.2003 93.7689 51.0191 102.908Z" fill="#CBE3FF"/>
<path opacity="0.5" d="M132.295 78.4345C130.373 86.4277 144.202 86.2866 143.942 79.0606C143.683 71.8347 133.993 71.3998 132.295 78.4345Z" fill="#CBE3FF"/>
<path d="M113.813 114.651C113.813 114.651 119.957 128.306 136.381 134.565C152.804 140.824 161.714 130.675 161.714 130.675C161.714 130.675 161.322 122.558 157.732 113.016C157.732 113.016 148.613 119.618 137.491 120.814C126.391 122.071 113.813 114.651 113.813 114.651Z" fill="url(#paint14_linear_608_2511)"/>
<path d="M86.9009 179.913C86.9009 179.913 100.422 196.251 119.034 189.113C137.645 181.975 128.401 149.869 128.401 149.869C128.401 149.869 131.874 164.2 116.45 174.371C101.006 184.585 86.9009 179.913 86.9009 179.913Z" fill="url(#paint15_linear_608_2511)"/>
<path opacity="0.5" d="M48.7975 144.504C48.7975 144.504 29.2578 127.3 31.6786 104.779C31.6786 104.779 20.8195 131.129 48.7975 144.504Z" fill="url(#paint16_linear_608_2511)"/>
<path opacity="0.5" d="M38.6718 144.934C38.6718 144.934 44.1155 157.218 54.9833 165.817C65.851 174.417 72.3892 174.456 72.3892 174.456C72.3892 174.456 58.34 176.844 48.7696 166.351C39.1991 155.859 38.6718 144.934 38.6718 144.934Z" fill="url(#paint17_linear_608_2511)"/>
<path opacity="0.5" d="M69.5355 165.469C69.5355 165.469 82.0787 175.344 91.9606 178.008C101.831 180.641 110.919 177.504 110.919 177.504C110.919 177.504 84.1872 190.756 69.5355 165.469Z" fill="url(#paint18_linear_608_2511)"/>
<path d="M142.377 65.4285C142.727 68.8874 148.239 68.7968 148.823 65.9562C149.397 63.0851 141.918 61.1394 142.377 65.4285Z" fill="#FFFFE2"/>
<path d="M64.3007 93.6977C63.1062 98.1326 70.3316 100.873 71.9198 95.5547C73.5501 90.2551 65.4177 89.6066 64.3007 93.6977Z" fill="#FFFFE2"/>
<path d="M87.9915 132.367C88.8495 137.515 96.8482 136.087 94.893 131.534C92.9261 126.952 87.4335 129.093 87.9915 132.367Z" fill="#FFFFE2"/>
<path opacity="0.5" d="M139.967 140.55C139.587 146.382 146.116 144.122 146.277 141.269C146.458 138.375 140.19 136.767 139.967 140.55Z" fill="#FFFFE2"/>
<path d="M50.1998 47.6525C50.1998 47.6525 54.517 51.9968 64.72 46.5837C74.9113 41.1403 74.3601 33.1541 74.3601 33.1541C74.3601 33.1541 73.3592 40.5495 64.0994 45.1474C54.8279 49.7148 50.1998 47.6525 50.1998 47.6525Z" fill="#B7F385"/>
<path opacity="0.5" d="M64.739 146.413C64.739 146.413 66.3722 130.752 84.7056 123.163C103.039 115.573 111.873 120.871 111.873 120.871C111.873 120.871 99.0608 113.75 82.5811 121.989C66.0898 130.197 64.739 146.413 64.739 146.413Z" fill="url(#paint19_linear_608_2511)"/>
<path opacity="0.56" d="M112.199 73.9676C99.4882 80.0283 101.68 104.025 119.625 103.701C137.57 103.376 128.666 66.152 112.199 73.9676Z" fill="#7FE3FF"/>
<path opacity="0.56" d="M88.6262 138.752C85.5191 135.653 82.4049 132.626 77.6046 134.572C73.5341 136.238 72.1014 140.415 72.5582 144.426C66.3659 142.196 69.4691 159.11 70.3301 161.083C76.2754 174.674 99.7331 178.445 102.713 160.838C103.221 157.887 103.134 152.932 101.633 150.019C98.431 143.852 86.2185 147.664 84.9943 153.749C85.3052 151.467 85.3594 148.516 87.152 147.096C87.9594 146.473 89.1608 147.058 90.0481 145.916C91.3125 144.21 90.1929 141.29 88.6262 138.752Z" fill="#7FEBFF"/>
<path opacity="0.56" d="M105.853 149.378C101.768 153.281 106.146 168.242 112.434 167.539C117.953 166.923 119.125 156.88 118.14 152.584C121.166 152.923 121.635 149.325 120.984 146.993C119.46 141.473 109.109 137.768 107.571 145.126L105.853 149.378Z" fill="#7FEBFF"/>
<path opacity="0.56" d="M39.1078 102.139C34.1144 100.67 31.6572 107.543 31.2583 111.323C30.5291 118.336 32.9557 126.3 39.0247 130.391C45.2969 134.649 56.0154 135.491 54.8935 125.108C60.2132 125.335 55.0314 115.462 53.9454 113.995C50.3256 109.104 45.3084 108.028 40.7517 111.973C39.832 110.303 41.415 107.882 42.3607 106.891C43.2081 106.008 43.3001 107.612 44.0408 105.724C45.0207 103.185 41.834 100.151 39.1078 102.139Z" fill="#7FEBFF"/>
<path opacity="0.56" d="M155.57 85.2756C150.789 89.2721 153.484 105.576 161.213 101.809C168.389 98.3245 167.812 82.3596 155.57 85.2756Z" fill="#7FEBFF"/>
<path opacity="0.56" d="M138.482 150.05C137.414 147.355 134.84 148.83 133.697 150.489C131.646 153.509 130.939 158.942 131.761 162.36C132.949 167.276 136.806 169.146 141.441 168.589C141.274 170.153 141.19 171.755 141.423 173.271C132.042 162.182 121.259 192.097 132.331 193.223C136.39 193.619 140.965 187.539 142.532 184.531C144.61 180.49 144.493 176 144.326 171.564C144.061 165.142 142.198 157.101 138.482 150.05Z" fill="#7FEBFF"/>
<path d="M65.5373 143.037C65.5373 143.037 62.0041 160.02 77.3878 173.027C88.3671 182.281 107.749 178.79 107.749 178.79C107.749 178.79 93.3721 186.327 78.0983 175.789C62.855 165.24 63.3518 146.98 65.5373 143.037Z" fill="#00A1FF"/>
<defs>
<radialGradient id="paint0_radial_608_2511" cx="0" cy="0" r="1" gradientUnits="userSpaceOnUse" gradientTransform="translate(94.3113 102.477) rotate(-20.9827) scale(32.4452)">
<stop stop-color="#331168"/>
<stop offset="0.9022" stop-color="#2C0069"/>
</radialGradient>
<radialGradient id="paint1_radial_608_2511" cx="0" cy="0" r="1" gradientUnits="userSpaceOnUse" gradientTransform="translate(137.474 121.599) rotate(-20.9827) scale(32.4451 32.4451)">
<stop stop-color="#412172"/>
<stop offset="0.9022" stop-color="#2C0069"/>
</radialGradient>
<radialGradient id="paint2_radial_608_2511" cx="0" cy="0" r="1" gradientUnits="userSpaceOnUse" gradientTransform="translate(65.6542 130.494) rotate(-20.9827) scale(32.4452 32.4452)">
<stop stop-color="#331168"/>
<stop offset="0.9022" stop-color="#2C0069"/>
</radialGradient>
<radialGradient id="paint3_radial_608_2511" cx="0" cy="0" r="1" gradientUnits="userSpaceOnUse" gradientTransform="translate(116.491 150.281) rotate(-20.9827) scale(32.4423 32.4423)">
<stop stop-color="#331168"/>
<stop offset="0.9022" stop-color="#2C0069"/>
</radialGradient>
<linearGradient id="paint4_linear_608_2511" x1="95.0023" y1="85.1578" x2="70.6224" y2="25.948" gradientUnits="userSpaceOnUse">
<stop stop-color="#0B8000"/>
<stop offset="0.1906" stop-color="#1E8900"/>
<stop offset="0.4604" stop-color="#329200"/>
<stop offset="0.7305" stop-color="#3E9700"/>
<stop offset="1" stop-color="#429900"/>
</linearGradient>
<linearGradient id="paint5_linear_608_2511" x1="48.2862" y1="43.1289" x2="74.6223" y2="33.0285" gradientUnits="userSpaceOnUse">
<stop stop-color="#63AD00"/>
<stop offset="0.2543" stop-color="#71BB00"/>
<stop offset="0.5223" stop-color="#7CC600"/>
<stop offset="0.677" stop-color="#80D900"/>
<stop offset="0.8386" stop-color="#82E500"/>
<stop offset="1" stop-color="#83E900"/>
</linearGradient>
<radialGradient id="paint6_radial_608_2511" cx="0" cy="0" r="1" gradientUnits="userSpaceOnUse" gradientTransform="translate(71.7169 102.43) rotate(-20.9827) scale(32.3466 32.3466)">
<stop stop-color="#6803A1"/>
<stop offset="0.3438" stop-color="#65039F"/>
<stop offset="0.6096" stop-color="#5B0499"/>
<stop offset="0.8486" stop-color="#4B048E"/>
<stop offset="1" stop-color="#3C0584"/>
</radialGradient>
<radialGradient id="paint7_radial_608_2511" cx="0" cy="0" r="1" gradientUnits="userSpaceOnUse" gradientTransform="translate(138.706 76.6721) rotate(-20.9827) scale(33.1029)">
<stop stop-color="#6803A1"/>
<stop offset="0.3271" stop-color="#65039F"/>
<stop offset="0.6038" stop-color="#5A0498"/>
<stop offset="0.8614" stop-color="#49048C"/>
<stop offset="1" stop-color="#3C0584"/>
</radialGradient>
<linearGradient id="paint8_linear_608_2511" x1="154.568" y1="126.551" x2="115.278" y2="57.2531" gradientUnits="userSpaceOnUse">
<stop stop-color="#804FB9"/>
<stop offset="0.0268558" stop-color="#7B4CB2"/>
<stop offset="0.2851" stop-color="#503173"/>
<stop offset="0.5206" stop-color="#2D1C42"/>
<stop offset="0.7258" stop-color="#150D1E"/>
<stop offset="0.8925" stop-color="#060308"/>
<stop offset="1"/>
</linearGradient>
<linearGradient id="paint9_linear_608_2511" x1="75.4001" y1="155.69" x2="33.6263" y2="82.0106" gradientUnits="userSpaceOnUse">
<stop stop-color="#804FB9"/>
<stop offset="0.0268558" stop-color="#7B4CB2"/>
<stop offset="0.2851" stop-color="#503173"/>
<stop offset="0.5206" stop-color="#2D1C42"/>
<stop offset="0.7258" stop-color="#150D1E"/>
<stop offset="0.8925" stop-color="#060308"/>
<stop offset="1"/>
</linearGradient>
<radialGradient id="paint10_radial_608_2511" cx="0" cy="0" r="1" gradientUnits="userSpaceOnUse" gradientTransform="translate(101.339 130.649) rotate(-20.9827) scale(31.1243 31.1243)">
<stop stop-color="#6803A1"/>
<stop offset="0.3438" stop-color="#65039F"/>
<stop offset="0.6096" stop-color="#5B0499"/>
<stop offset="0.8486" stop-color="#4B048E"/>
<stop offset="1" stop-color="#3C0584"/>
</radialGradient>
<linearGradient id="paint11_linear_608_2511" x1="111.158" y1="188.84" x2="71.219" y2="118.398" gradientUnits="userSpaceOnUse">
<stop stop-color="#804FB9"/>
<stop offset="0.0268558" stop-color="#7B4CB2"/>
<stop offset="0.2851" stop-color="#503173"/>
<stop offset="0.5206" stop-color="#2D1C42"/>
<stop offset="0.7258" stop-color="#150D1E"/>
<stop offset="0.8925" stop-color="#060308"/>
<stop offset="1"/>
</linearGradient>
<linearGradient id="paint12_linear_608_2511" x1="131.816" y1="203.155" x2="107.191" y2="159.723" gradientUnits="userSpaceOnUse">
<stop stop-color="#804FB9"/>
<stop offset="0.0268558" stop-color="#7B4CB2"/>
<stop offset="0.2851" stop-color="#503173"/>
<stop offset="0.5206" stop-color="#2D1C42"/>
<stop offset="0.7258" stop-color="#150D1E"/>
<stop offset="0.8925" stop-color="#060308"/>
<stop offset="1"/>
</linearGradient>
<linearGradient id="paint13_linear_608_2511" x1="84.0222" y1="81.557" x2="65.9254" y2="34.3705" gradientUnits="userSpaceOnUse">
<stop stop-color="#E2D3FF"/>
<stop offset="0.1222" stop-color="#DEC7F3"/>
<stop offset="0.3411" stop-color="#D2A8D4"/>
<stop offset="0.6315" stop-color="#BF76A2"/>
<stop offset="0.9787" stop-color="#A6315D"/>
<stop offset="1" stop-color="#A42D59"/>
</linearGradient>
<linearGradient id="paint14_linear_608_2511" x1="145.326" y1="138.798" x2="133.217" y2="107.225" gradientUnits="userSpaceOnUse">
<stop stop-color="#AE93FF"/>
<stop offset="0.1222" stop-color="#A78CF3"/>
<stop offset="0.3411" stop-color="#9479D4"/>
<stop offset="0.6315" stop-color="#755AA2"/>
<stop offset="0.9787" stop-color="#4B305D"/>
<stop offset="1" stop-color="#482D59"/>
</linearGradient>
<linearGradient id="paint15_linear_608_2511" x1="117.217" y1="189.839" x2="105.293" y2="158.749" gradientUnits="userSpaceOnUse">
<stop stop-color="#AE93FF"/>
<stop offset="0.1222" stop-color="#A78CF3"/>
<stop offset="0.3411" stop-color="#9479D4"/>
<stop offset="0.6315" stop-color="#755AA2"/>
<stop offset="0.9787" stop-color="#4B305D"/>
<stop offset="1" stop-color="#482D59"/>
</linearGradient>
<linearGradient id="paint16_linear_608_2511" x1="31.7701" y1="127.892" x2="41.068" y2="124.326" gradientUnits="userSpaceOnUse">
<stop stop-color="#FF83B9"/>
<stop offset="0.0864505" stop-color="#F77FB4"/>
<stop offset="0.2173" stop-color="#E374A4"/>
<stop offset="0.3765" stop-color="#C0638C"/>
<stop offset="0.5577" stop-color="#914A69"/>
<stop offset="0.7576" stop-color="#542B3D"/>
<stop offset="0.9701" stop-color="#0B0608"/>
<stop offset="1"/>
</linearGradient>
<linearGradient id="paint17_linear_608_2511" x1="44.7296" y1="163.836" x2="65.2851" y2="155.953" gradientUnits="userSpaceOnUse">
<stop stop-color="#804FB9"/>
<stop offset="0.0268558" stop-color="#7B4CB2"/>
<stop offset="0.2851" stop-color="#503173"/>
<stop offset="0.5206" stop-color="#2D1C42"/>
<stop offset="0.7258" stop-color="#150D1E"/>
<stop offset="0.8925" stop-color="#060308"/>
<stop offset="1"/>
</linearGradient>
<linearGradient id="paint18_linear_608_2511" x1="74.2144" y1="177.654" x2="106.256" y2="165.365" gradientUnits="userSpaceOnUse">
<stop stop-color="#FF83B9"/>
<stop offset="0.0864505" stop-color="#F77FB4"/>
<stop offset="0.2173" stop-color="#E374A4"/>
<stop offset="0.3765" stop-color="#C0638C"/>
<stop offset="0.5577" stop-color="#914A69"/>
<stop offset="0.7576" stop-color="#542B3D"/>
<stop offset="0.9701" stop-color="#0B0608"/>
<stop offset="1"/>
</linearGradient>
<linearGradient id="paint19_linear_608_2511" x1="61.7692" y1="138.64" x2="111.404" y2="119.604" gradientUnits="userSpaceOnUse">
<stop stop-color="#FF83B9"/>
<stop offset="0.0864505" stop-color="#F77FB4"/>
<stop offset="0.2173" stop-color="#E374A4"/>
<stop offset="0.3765" stop-color="#C0638C"/>
<stop offset="0.5577" stop-color="#914A69"/>
<stop offset="0.7576" stop-color="#542B3D"/>
<stop offset="0.9701" stop-color="#0B0608"/>
<stop offset="1"/>
</linearGradient>
</defs>
</svg>
