<svg width="163" height="174" viewBox="0 0 163 174" fill="none" xmlns="http://www.w3.org/2000/svg">
<path d="M19.4747 39.7371C19.4747 39.7371 15.071 56.0411 15.236 57.8213C15.401 59.6016 23.8797 66.1828 23.8797 66.1828C23.8797 66.1828 19.595 101.435 23.6518 115.291C28.2498 130.998 48.9643 136.551 55.9139 138.6C62.8636 140.65 85.6653 108.038 85.6653 108.038C85.6653 108.038 110.166 59.0042 110.089 58.1665C110.011 57.3287 79.0946 37.1424 79.0946 37.1424C79.0946 37.1424 90.0996 59.0157 89.6571 78.174C89.2147 97.3323 66.2932 97.0274 66.2932 97.0274L41.018 69.9018L19.4747 39.7371Z" fill="#00A1FF"/>
<path d="M123.461 49.4545C121.846 50.5547 118.199 51.3681 116.606 52.4135C114.989 53.4875 134.66 104.475 120.428 115.59C103.583 128.716 67.8738 147.13 46.3514 134.285C43.2775 132.457 35.8728 127.493 31.9721 123.867C25.2936 117.621 24.1404 103.469 24.4254 90.8738C24.7157 78.6213 26.8148 66.2276 26.0711 65.61C23.8063 63.6811 19.8931 61.06 18.4258 59.1892C17.2282 57.6631 19.4461 39.7133 19.4461 39.7133C19.4461 39.7133 58.1057 38.0315 59.7736 38.9331C61.4391 39.8085 50.6636 59.1588 53.2709 79.8828C55.8781 100.607 74.9251 97.2836 74.9251 97.2836C74.9251 97.2836 94.2583 97.0497 92.9863 76.2019C91.7404 55.3517 77.5947 38.3376 79.0684 37.1448C80.5446 35.9782 118.852 30.5003 118.852 30.5003C118.852 30.5003 125.075 48.3543 123.461 49.4545Z" fill="url(#paint0_linear_608_2551)"/>
<path d="M133.048 42.0703C133.048 42.0703 94.7402 47.5482 93.264 48.7149C91.7878 49.8815 105.936 66.9217 107.182 87.7719C108.428 108.622 89.0944 108.856 89.0944 108.856C89.0944 108.856 70.0475 112.179 67.4403 91.4552C64.833 70.7312 75.6109 51.4072 73.943 50.5055C72.2776 49.6301 33.6155 51.2858 33.6155 51.2858C33.6155 51.2858 30.8037 69.9507 32.5928 70.7355C34.3557 71.5227 38.1169 71.6494 39.8774 72.4104C41.6902 73.1666 31.725 126.9 47.755 135.185C58.0167 140.491 76.7249 144.91 93.8894 143.214C110.585 141.587 125.754 134.029 134.621 127.134C148.881 116.042 129.208 65.0289 130.799 63.9573C132.389 62.8857 136.066 62.0961 137.652 60.9721C139.242 59.9005 133.048 42.0703 133.048 42.0703Z" fill="url(#paint1_linear_608_2551)"/>
<path d="M131.658 103.432C133.426 117.95 130.289 120.855 129.919 121.127C125.609 124.484 112.07 133.396 91.5713 135.296C71.0722 137.195 56.6754 131.717 51.2732 128.416C50.9968 128.283 49.4002 127.295 48.0472 122.668C47.3095 120.122 46.6319 116.515 46.311 111.343C45.6575 101.158 46.6179 89.5827 47.2281 81.9215C48.0418 72.1818 48.3958 67.7394 42.8977 65.3972C42.5952 65.2668 42.2664 65.1388 41.9687 65.0608C41.2589 64.8097 40.5302 64.6396 39.804 64.4957C39.8805 63.3268 39.9972 62.0221 40.159 60.634C40.2317 59.9936 40.3019 59.3269 40.3722 58.6603C46.0014 58.429 51.6093 58.2525 56.5342 58.113C59.3001 58.0415 61.8565 57.9894 64.0964 57.9402C61.4641 66.2905 58.1989 78.9243 59.8984 92.4182C60.4971 97.1685 61.8133 101.113 63.6423 104.323C69.3253 114.359 79.9592 117.413 88.939 116.581C89.2794 116.549 89.5935 116.52 89.8005 116.474C90.0361 116.453 90.3266 116.452 90.6669 116.421C102.527 115.321 115.966 107.052 114.772 87.3325C113.963 73.7561 108.46 61.9613 104.309 54.2132C108.574 53.5011 114.064 52.6227 119.923 51.7364C122.474 51.3415 125.132 50.9631 127.762 50.561C128.401 52.6141 128.978 54.5674 129.393 56.1925C128.401 56.6013 127.414 57.0625 126.52 57.6734C121.546 60.9862 122.736 65.2855 125.3 74.7121C127.355 82.0735 130.429 93.3012 131.658 103.432Z" fill="url(#paint2_linear_608_2551)"/>
<path d="M124.927 115.991C120.618 119.348 113.271 126.974 89.5253 129.174C71.6704 130.829 53.4143 129.009 48.0472 122.668C47.3096 120.122 46.6319 116.515 46.311 111.343C45.6576 101.158 46.6179 89.5827 47.2282 81.9215C48.0418 72.1818 48.3958 67.7393 42.8977 65.3971C42.5952 65.2667 42.2665 65.1388 41.9688 65.0607C41.7441 63.2068 41.2131 61.7509 40.1566 60.6078C40.2293 59.9673 40.2995 59.3007 40.3698 58.6341C45.999 58.4028 51.6069 58.2263 56.5318 58.0868C54.5553 65.8218 53.0227 75.4961 54.3117 85.701C55.415 94.4708 58.9795 100.451 63.6399 104.297C69.3229 114.332 79.9568 117.387 88.9366 116.554C89.2769 116.523 89.5911 116.494 89.7981 116.448C90.0337 116.426 90.3242 116.426 90.6645 116.394C102.524 115.295 115.964 107.026 114.77 87.3063C113.96 73.7299 108.458 61.9351 104.307 54.187C108.571 53.4749 114.061 52.5964 119.92 51.7101C116.127 54.9399 117.32 59.2654 119.713 67.9949C121.747 75.411 124.821 86.6388 126.022 96.7462C127.842 111.259 125.298 115.719 124.927 115.991Z" fill="url(#paint3_linear_608_2551)"/>
<path d="M19.4747 39.737L33.6417 51.2833C33.6417 51.2833 64.8724 49.7883 73.9692 50.5031L59.8022 38.9568C59.7997 38.9307 27.0368 38.1384 19.4747 39.737Z" fill="#FFCE1A"/>
<path d="M79.0946 37.1424C79.0946 37.1424 102.896 31.5566 118.879 30.4978L133.046 42.0441C133.046 42.0441 105.815 47.1027 93.2616 48.6886L79.0946 37.1424Z" fill="#FFCE1A"/>
<path opacity="0.5" d="M39.8015 64.4695C39.8015 64.4695 51.213 61.6691 56.7663 62.8972C62.3196 64.1252 61.8325 65.9923 61.8325 65.9923L64.1177 57.8854L40.3959 58.6317L39.8015 64.4695Z" fill="url(#paint4_linear_608_2551)"/>
<path opacity="0.5" d="M104.333 54.1846L108.953 62.1532C108.953 62.1532 113.756 57.5625 117.196 56.2139C120.635 54.8653 129.419 56.1901 129.419 56.1901L127.788 50.5585L104.333 54.1846Z" fill="url(#paint5_linear_608_2551)"/>
<path d="M19.4747 39.7371C19.4747 39.7371 31.9227 46.9802 36.3168 48.2365C40.6846 49.4952 70.0329 49.6269 73.9954 50.5007C73.9954 50.5007 44.2016 50.1198 33.5599 52.1095L19.4747 39.7371Z" fill="#FFE748"/>
<path d="M79.0946 37.1424C79.0946 37.1424 88.3597 44.2316 95.1391 45.5837C101.916 46.9096 133.074 42.0678 133.074 42.0678C133.074 42.0678 102.538 47.3536 93.495 50.0665C93.4688 50.0689 83.1718 40.9629 79.0946 37.1424Z" fill="#FFE748"/>
<path d="M51.2732 128.416C51.2732 128.416 66.3686 138.582 95.8828 134.236C127.429 129.596 131.725 116.972 131.725 116.972C131.725 116.972 131.735 119.929 129.556 122.058C127.403 124.185 120.693 133.547 93.2319 136.119C65.8499 138.683 53.1675 129.481 51.2732 128.416Z" fill="#FFE748"/>
<path d="M69.8971 99.73C69.8971 99.73 80.8231 110.494 93.4625 106.128C106.131 101.785 107.259 89.4547 107.259 89.4547C107.259 89.4547 108.961 102.975 94.6248 107.842C80.289 112.709 71.883 105.487 69.8971 99.73Z" fill="#FFBD48"/>
<path d="M66.7701 116.417C67.1486 120.501 64.4698 124.077 60.8045 124.416C57.4796 124.725 54.4522 122.259 53.6534 118.768C53.5671 118.407 53.5069 118.043 53.4729 117.676C53.0944 113.592 55.7732 110.017 59.4385 109.677C60.7737 109.553 62.0454 109.884 63.1605 110.52C65.0859 111.636 66.5299 113.825 66.7701 116.417Z" fill="url(#paint6_linear_608_2551)"/>
<path d="M63.341 111.613C63.7195 115.697 61.0407 119.272 57.3755 119.612C56.0403 119.735 54.7685 119.404 53.6534 118.768C53.5671 118.407 53.5069 118.043 53.4729 117.676C53.0944 113.592 55.7732 110.017 59.4385 109.677C60.7737 109.553 62.0454 109.884 63.1605 110.52C63.2444 110.856 63.3046 111.22 63.341 111.613Z" fill="url(#paint7_linear_608_2551)"/>
<path d="M54.0219 119.896C54.0219 119.896 55.6925 123.676 59.9395 123.916C64.1866 124.156 67.3036 119.325 66.6711 115.634C66.6711 115.634 67.6533 120.534 63.8477 123.633C60.0421 126.732 54.8984 124.224 54.0219 119.896Z" fill="#FF9348"/>
<path d="M99.9156 118.204C100.013 119.251 99.8978 120.292 99.64 121.213C98.833 123.902 96.6728 125.951 93.95 126.203C91.044 126.472 88.42 124.656 87.2368 121.861C87.2033 121.785 87.1723 121.735 87.1699 121.709C87.0288 121.326 86.8877 120.943 86.7965 120.529C86.7101 120.167 86.65 119.803 86.616 119.436C86.5287 118.494 86.6033 117.589 86.816 116.751C89.4345 116.799 92.9262 116.581 96.4212 115.544C97.1921 115.314 97.9867 115.056 98.7764 114.745C99.3971 115.743 99.7967 116.921 99.9156 118.204Z" fill="url(#paint8_linear_608_2551)"/>
<path d="M96.4212 115.544C95.8911 118.656 93.5316 121.119 90.5209 121.398C89.1857 121.522 87.9164 121.217 86.7989 120.555C86.7125 120.193 86.6524 119.829 86.6184 119.463C86.5311 118.52 86.6056 117.616 86.8184 116.777C89.4321 116.773 92.9238 116.555 96.4212 115.544Z" fill="url(#paint9_linear_608_2551)"/>
<path d="M87.1699 121.709C87.1699 121.709 88.8404 125.488 93.0875 125.728C97.3346 125.969 100.452 121.138 99.819 117.447C99.819 117.447 100.801 122.347 96.9956 125.445C93.1876 128.518 88.0463 126.037 87.1699 121.709Z" fill="#FF9348"/>
<path d="M125.832 108.092C126.211 112.176 123.532 115.751 119.867 116.091C116.542 116.399 113.514 113.933 112.716 110.443C112.629 110.081 112.569 109.717 112.535 109.35C112.157 105.266 114.835 101.691 118.501 101.351C119.836 101.228 121.108 101.559 122.223 102.195C124.177 103.334 125.592 105.5 125.832 108.092Z" fill="url(#paint10_linear_608_2551)"/>
<path d="M122.429 103.284C122.808 107.369 120.129 110.944 116.464 111.284C115.129 111.407 113.857 111.076 112.742 110.44C112.655 110.079 112.595 109.714 112.561 109.348C112.183 105.264 114.862 101.689 118.527 101.349C119.862 101.225 121.134 101.556 122.249 102.192C122.307 102.53 122.393 102.892 122.429 103.284Z" fill="url(#paint11_linear_608_2551)"/>
<path d="M113.087 111.597C113.087 111.597 114.757 115.376 119.004 115.616C123.251 115.856 126.368 111.026 125.736 107.335C125.736 107.335 126.718 112.234 122.912 115.333C119.131 118.403 113.989 115.923 113.087 111.597Z" fill="#FF9348"/>
<path d="M39.4309 83.8324C39.4309 83.8324 33.8124 73.9231 28.077 74.7187C25.314 75.1068 24.4539 90.8975 24.4539 90.8975C24.7442 78.6451 26.8434 66.2514 26.0996 65.6338C23.8348 63.7048 19.9216 61.0838 18.4543 59.213C18.9935 59.9023 31.9378 70.5057 32.6214 70.7592C33.3312 71.0103 38.7409 71.8292 39.9036 72.4079C41.0924 72.9843 39.4309 83.8324 39.4309 83.8324Z" fill="url(#paint12_linear_608_2551)"/>
<path d="M87.5847 92.2815C91.3215 89.2947 103.21 95.0582 104.025 95.8803C104.841 96.7025 103.01 99.4599 103.01 99.4599C103.01 99.4599 110.337 93.6055 106.233 80.3872C102.13 67.1688 95.4248 53.7956 94.0628 52.2055C92.7008 50.6154 81.0381 41.8736 81.0381 41.8736C81.0381 41.8736 91.7198 54.5614 92.515 72.2584C93.3102 89.9553 87.5847 92.2815 87.5847 92.2815Z" fill="url(#paint13_linear_608_2551)"/>
<path d="M92.0591 47.1102C90.0156 47.8541 92.8524 54.2452 94.3264 55.9042C95.7718 57.5394 98.6946 54.6016 98.5514 53.0569C98.3845 51.5409 96.5028 45.4837 92.0591 47.1102Z" fill="url(#paint14_linear_608_2551)"/>
<path d="M91.6221 50.3721C91.6221 50.3721 93.4439 54.9298 94.9591 55.6079C96.4742 56.2861 98.2557 54.1406 98.2557 54.1406C98.2557 54.1406 97.8865 56.7097 95.893 57.4225C93.9019 58.1616 91.8549 51.4596 91.6221 50.3721Z" fill="#FFE13E"/>
<path d="M92.0591 47.1102C91.1579 47.6426 91.7164 52.5286 94.4911 53.4068C97.292 54.2827 97.5385 50.9592 97.0831 49.1795C96.6563 47.4235 93.5383 46.2602 92.0591 47.1102Z" fill="url(#paint15_linear_608_2551)"/>
<path d="M99.6289 105.424C102.701 103.238 106.093 110.212 106.093 110.212C106.093 110.212 112.879 105.648 114.403 95.3146C114.403 95.3146 113.029 96.4453 111.235 95.6082C109.467 94.7687 107.235 89.4833 107.235 89.4833C107.235 89.4833 107.248 99.5953 99.6289 105.424Z" fill="#FFC96F"/>
<path d="M122.078 128.27C125.112 126.246 128.016 131.654 128.016 131.654C128.016 131.654 134.196 129.101 137.908 122.71C141.646 116.317 139.181 102.26 139.181 102.26C139.181 102.26 139.222 105.266 137.593 106.209C135.99 107.15 131.632 103.435 131.632 103.435C131.632 103.435 133.504 114.8 131.376 118.906C129.274 123.008 122.078 128.27 122.078 128.27Z" fill="#FFC96F"/>
<path d="M100.24 102.331C99.3058 103.078 101.83 103.821 104.101 100.97C106.372 98.1186 106.261 94.6434 106.261 94.6434C106.261 94.6434 100.567 96.1745 100.24 102.331Z" fill="#FFE748"/>
<path d="M118.696 128.24C118.696 128.24 126.755 125.169 129.585 122.082C132.414 118.994 132.134 113.977 132.134 113.977C132.134 113.977 125.204 124.389 118.696 128.24Z" fill="#FFE748"/>
<path d="M32.7852 47.4547C29.8908 47.5646 32.7981 50.7278 34.7675 51.179C36.7369 51.6302 44.5788 50.7714 44.5788 50.7714C44.5788 50.7714 43.1037 47.1057 32.7852 47.4547Z" fill="#FFF497"/>
<path d="M98.0811 48.2684C97.3573 48.1506 93.959 45.9571 95.139 45.5837C102.966 43.1419 126.513 42.7816 127.603 42.8653C128.67 42.9777 103.25 49.0567 98.0811 48.2684Z" fill="#FFF497"/>
<path opacity="0.8" d="M24.3986 95.9989C24.3986 95.9989 24.7416 98.8452 25.9266 99.95C27.1116 101.055 36.2546 103.693 36.673 103.364C37.0914 103.034 38.4913 100.475 38.4913 100.475C38.4913 100.475 38.0886 113.795 39.6421 120.014C39.6421 120.014 38.175 114.156 36.1808 113.153C34.2104 112.121 27.536 108.198 26.4844 108.533C25.4305 108.842 26.2419 112.754 26.2419 112.754C26.2419 112.754 24.2791 103.826 24.3986 95.9989Z" fill="#FFC800"/>
<path opacity="0.8" d="M78.7042 96.7484C78.7042 96.7484 82.0785 96.1189 85.1929 95.2493C88.2836 94.4083 97.7544 98.0194 99.0539 99.2193C100.353 100.419 97.9101 103.973 97.9101 103.973C97.9101 103.973 103.793 100.206 106.15 93.7295C106.15 93.7295 105.44 94.6139 103.667 94.8574C101.867 95.1034 91.9893 91.3716 90.6817 90.9383C89.3741 90.5049 91.251 87.1096 91.251 87.1096C91.251 87.1096 88.4838 94.5746 78.7042 96.7484Z" fill="#FFC800"/>
<path d="M104.892 101.24C103.779 104.907 110.119 103.792 111.059 99.4006C112.027 95.0332 107.382 93.0608 104.892 101.24Z" fill="#FFFFE2"/>
<path d="M93.9854 37.9803C93.9854 37.9803 95.8391 34.904 105.144 34.7281C114.449 34.5523 118.045 35.7504 118.045 35.7504L93.9854 37.9803Z" fill="url(#paint16_linear_608_2551)"/>
<path d="M102.774 38.2219C102.774 38.2219 114.457 38.0633 116.216 37.6627C117.972 37.2359 122.316 36.2523 122.316 36.2523L104.932 37.2826L102.774 38.2219Z" fill="url(#paint17_linear_608_2551)"/>
<path d="M93.9855 37.9803C93.9855 37.9803 98.5563 36.8702 106.737 36.244C114.891 35.6203 118.045 35.7505 118.045 35.7505C118.045 35.7505 100.65 37.8115 93.9855 37.9803Z" fill="#FFE748"/>
<path d="M102.774 38.222C102.774 38.222 110.929 37.8887 114.818 37.3962C118.706 36.9038 122.314 36.2262 122.314 36.2262C122.314 36.2262 117.277 37.7228 114.552 37.9489C111.801 38.1775 102.774 38.222 102.774 38.222Z" fill="#FFE748"/>
<path d="M110.862 37.7364C110.862 37.7364 112.817 38.0306 114.752 37.8248C116.687 37.6191 117.79 36.9887 117.79 36.9887C117.79 36.9887 111.307 37.6952 110.862 37.7364Z" fill="#FFF497"/>
<path d="M102.338 36.6516C102.338 36.6516 104.634 37.2046 108.582 36.7859C112.531 36.3671 113.508 35.8013 113.508 35.8013C113.508 35.8013 105.717 36.0744 102.338 36.6516Z" fill="#FFF497"/>
<path d="M39.8514 80.6776C39.8514 80.6776 38.0451 98.51 39.588 112.309C41.131 126.108 50.6829 136.577 50.6829 136.577C50.6829 136.577 45.2916 135.386 41.0512 128.096C36.8132 120.831 37.5879 93.0073 39.8514 80.6776Z" fill="#FFBD48"/>
<path d="M32.2939 50.9857C32.2939 50.9857 32.3208 54.1255 32.4074 57.3389C32.494 60.5523 31.7147 64.1099 32.0413 68.4893C32.0413 68.4893 32.325 57.8746 34.8329 51.8858L32.2939 50.9857Z" fill="#FFCC48"/>
<path d="M64.0941 57.914C64.0941 57.914 56.3655 85.3523 62.4122 101.876C62.4359 101.847 53.3837 84.5196 64.0941 57.914Z" fill="#FFCC48"/>
<path d="M129.443 56.1615C129.443 56.1615 124.271 59.3341 124.007 63.9002C123.744 68.4663 127.243 81.7142 127.243 81.7142C127.243 81.7142 122.855 67.9941 122.434 62.5937C122.013 57.1933 129.443 56.1615 129.443 56.1615Z" fill="#FFCC48"/>
<path d="M94.4174 126.688C94.4174 126.688 95.8761 125.048 96.9058 124.477C97.9093 123.909 98.6443 123.576 98.6443 123.576C98.6443 123.576 96.9574 126.743 94.4174 126.688Z" fill="#FFE748"/>
<path d="M59.5629 124.98C59.5629 124.98 61.7576 123.589 63.2372 123.029C64.7168 122.47 65.0286 122.414 65.0286 122.414C65.0286 122.414 63.2321 125.538 59.5629 124.98Z" fill="#FFE748"/>
<path d="M119.918 116.641C119.918 116.641 121.972 115.156 122.846 114.336C123.721 113.516 124.675 113.269 124.675 113.269C124.675 113.269 123.738 116.26 119.918 116.641Z" fill="#FFE748"/>
<path d="M49.9623 51.5927C48.1161 52.1863 51.1931 55.7562 56.9311 56.4127C62.6714 57.0953 66.2678 51.4545 66.2678 51.4545C66.2678 51.4545 57.5777 49.1442 49.9623 51.5927Z" fill="#FFFFE2"/>
<defs>
<linearGradient id="paint0_linear_608_2551" x1="78.769" y1="137.468" x2="69.2824" y2="35.11" gradientUnits="userSpaceOnUse">
<stop stop-color="#D64900"/>
<stop offset="0.636" stop-color="#E46800"/>
<stop offset="1" stop-color="#EA7500"/>
</linearGradient>
<linearGradient id="paint1_linear_608_2551" x1="92.3197" y1="143.37" x2="83.3577" y2="46.6725" gradientUnits="userSpaceOnUse">
<stop stop-color="#FF7500"/>
<stop offset="0.3077" stop-color="#FF8F00"/>
<stop offset="0.755" stop-color="#FFB000"/>
<stop offset="1" stop-color="#FFBD00"/>
</linearGradient>
<linearGradient id="paint2_linear_608_2551" x1="91.5706" y1="135.29" x2="84.0908" y2="54.585" gradientUnits="userSpaceOnUse">
<stop stop-color="#FFC500"/>
<stop offset="0.0688233" stop-color="#FEB800"/>
<stop offset="0.195" stop-color="#FB9700"/>
<stop offset="0.3633" stop-color="#F56200"/>
<stop offset="0.3715" stop-color="#F55F00"/>
<stop offset="1" stop-color="#D64900"/>
</linearGradient>
<linearGradient id="paint3_linear_608_2551" x1="87.8321" y1="129.329" x2="80.9318" y2="54.8778" gradientUnits="userSpaceOnUse">
<stop stop-color="#FF5E00"/>
<stop offset="0.1401" stop-color="#FF6700"/>
<stop offset="0.6957" stop-color="#FF8800"/>
<stop offset="1" stop-color="#FF9500"/>
</linearGradient>
<linearGradient id="paint4_linear_608_2551" x1="52.4841" y1="66.8698" x2="51.6244" y2="57.5941" gradientUnits="userSpaceOnUse">
<stop stop-color="white"/>
<stop offset="0.1016" stop-color="#FAF3F6"/>
<stop offset="0.2836" stop-color="#EDD4DD"/>
<stop offset="0.5249" stop-color="#D7A2B6"/>
<stop offset="0.8131" stop-color="#B95D7F"/>
<stop offset="1" stop-color="#A42D59"/>
</linearGradient>
<linearGradient id="paint5_linear_608_2551" x1="117.462" y1="61.3426" x2="116.557" y2="51.576" gradientUnits="userSpaceOnUse">
<stop stop-color="white"/>
<stop offset="0.1016" stop-color="#FAF3F6"/>
<stop offset="0.2836" stop-color="#EDD4DD"/>
<stop offset="0.5249" stop-color="#D7A2B6"/>
<stop offset="0.8131" stop-color="#B95D7F"/>
<stop offset="1" stop-color="#A42D59"/>
</linearGradient>
<linearGradient id="paint6_linear_608_2551" x1="60.7928" y1="124.398" x2="59.4259" y2="109.65" gradientUnits="userSpaceOnUse">
<stop stop-color="#D65400"/>
<stop offset="0.4702" stop-color="#D64700"/>
<stop offset="1" stop-color="#D63400"/>
</linearGradient>
<linearGradient id="paint7_linear_608_2551" x1="58.8465" y1="119.458" x2="57.9502" y2="109.787" gradientUnits="userSpaceOnUse">
<stop stop-color="#C2B5FF"/>
<stop offset="0.1222" stop-color="#C0ABF3"/>
<stop offset="0.3411" stop-color="#BA92D4"/>
<stop offset="0.6315" stop-color="#B169A2"/>
<stop offset="0.9787" stop-color="#A5315D"/>
<stop offset="1" stop-color="#A42D59"/>
</linearGradient>
<linearGradient id="paint8_linear_608_2551" x1="93.9545" y1="126.206" x2="92.9412" y2="115.273" gradientUnits="userSpaceOnUse">
<stop stop-color="#D65400"/>
<stop offset="0.4702" stop-color="#D64700"/>
<stop offset="1" stop-color="#D63400"/>
</linearGradient>
<linearGradient id="paint9_linear_608_2551" x1="91.8696" y1="121.269" x2="91.3824" y2="116.011" gradientUnits="userSpaceOnUse">
<stop stop-color="#C2B5FF"/>
<stop offset="0.1222" stop-color="#C0ABF3"/>
<stop offset="0.3411" stop-color="#BA92D4"/>
<stop offset="0.6315" stop-color="#B169A2"/>
<stop offset="0.9787" stop-color="#A5315D"/>
<stop offset="1" stop-color="#A42D59"/>
</linearGradient>
<linearGradient id="paint10_linear_608_2551" x1="119.87" y1="116.077" x2="118.503" y2="101.329" gradientUnits="userSpaceOnUse">
<stop stop-color="#D65400"/>
<stop offset="0.4702" stop-color="#D64700"/>
<stop offset="1" stop-color="#D63400"/>
</linearGradient>
<linearGradient id="paint11_linear_608_2551" x1="117.923" y1="111.137" x2="117.027" y2="101.466" gradientUnits="userSpaceOnUse">
<stop stop-color="#C2B5FF"/>
<stop offset="0.1222" stop-color="#C0ABF3"/>
<stop offset="0.3411" stop-color="#BA92D4"/>
<stop offset="0.6315" stop-color="#B169A2"/>
<stop offset="0.9787" stop-color="#A5315D"/>
<stop offset="1" stop-color="#A42D59"/>
</linearGradient>
<linearGradient id="paint12_linear_608_2551" x1="31.5849" y1="90.2343" x2="28.6208" y2="58.2519" gradientUnits="userSpaceOnUse">
<stop stop-color="#FFE0E3"/>
<stop offset="0.1152" stop-color="#F9D4DA"/>
<stop offset="0.3215" stop-color="#E9B5C2"/>
<stop offset="0.5951" stop-color="#D0839B"/>
<stop offset="0.9222" stop-color="#AD3E66"/>
<stop offset="1" stop-color="#A42D59"/>
</linearGradient>
<linearGradient id="paint13_linear_608_2551" x1="97.5524" y1="99.9451" x2="92.0742" y2="40.8378" gradientUnits="userSpaceOnUse">
<stop stop-color="white"/>
<stop offset="0.1016" stop-color="#FAF3F6"/>
<stop offset="0.2836" stop-color="#EDD4DD"/>
<stop offset="0.5249" stop-color="#D7A2B6"/>
<stop offset="0.8131" stop-color="#B95D7F"/>
<stop offset="1" stop-color="#A42D59"/>
</linearGradient>
<linearGradient id="paint14_linear_608_2551" x1="95.4412" y1="56.3917" x2="94.546" y2="46.7329" gradientUnits="userSpaceOnUse">
<stop stop-color="#FF7231"/>
<stop offset="0.0801299" stop-color="#F96530"/>
<stop offset="0.2888" stop-color="#EB492D"/>
<stop offset="0.4984" stop-color="#E1352B"/>
<stop offset="0.7076" stop-color="#DB2929"/>
<stop offset="0.9162" stop-color="#D92529"/>
</linearGradient>
<linearGradient id="paint15_linear_608_2551" x1="94.8392" y1="53.6258" x2="94.1999" y2="46.7285" gradientUnits="userSpaceOnUse">
<stop stop-color="#FFD7E6"/>
<stop offset="0.0996682" stop-color="#F9CBDE"/>
<stop offset="0.2783" stop-color="#EAACCA"/>
<stop offset="0.5152" stop-color="#D27AA9"/>
<stop offset="0.798" stop-color="#B0357C"/>
<stop offset="1" stop-color="#960059"/>
</linearGradient>
<linearGradient id="paint16_linear_608_2551" x1="93.8703" y1="36.8353" x2="117.934" y2="34.605" gradientUnits="userSpaceOnUse">
<stop stop-color="#FFC500"/>
<stop offset="0.0688233" stop-color="#FEB800"/>
<stop offset="0.195" stop-color="#FB9700"/>
<stop offset="0.3633" stop-color="#F56200"/>
<stop offset="0.3715" stop-color="#F55F00"/>
<stop offset="1" stop-color="#D64900"/>
</linearGradient>
<linearGradient id="paint17_linear_608_2551" x1="102.87" y1="38.8004" x2="122.186" y2="35.4808" gradientUnits="userSpaceOnUse">
<stop stop-color="#FFC500"/>
<stop offset="0.0688233" stop-color="#FEB800"/>
<stop offset="0.195" stop-color="#FB9700"/>
<stop offset="0.3633" stop-color="#F56200"/>
<stop offset="0.3715" stop-color="#F55F00"/>
<stop offset="1" stop-color="#D64900"/>
</linearGradient>
</defs>
</svg>
