<svg width="574" height="246" viewBox="0 0 574 246" fill="none" xmlns="http://www.w3.org/2000/svg">
<path d="M117.08 237.618C115.438 236.308 114.13 234.628 113.261 232.716C112.393 230.803 111.989 228.713 112.083 226.614V189.818H17.1659C14.8474 189.905 12.5375 189.489 10.3945 188.6C8.25151 187.711 6.32616 186.368 4.75042 184.665C1.64589 181.381 -0.057476 177.017 0.00148096 172.498C-0.0110907 168.826 1.0694 165.234 3.10536 162.178L94.018 19.3062C100.847 8.76332 109.92 3.49189 121.239 3.49189C127.324 3.28515 133.266 5.36726 137.891 9.32719C142.33 13.207 144.549 18.9751 144.549 26.6313V165.514H168.697C170.365 165.414 172.035 165.682 173.588 166.299C175.141 166.915 176.539 167.866 177.683 169.084C179.725 171.477 180.847 174.52 180.847 177.666C180.847 180.812 179.725 183.855 177.683 186.248C176.539 187.466 175.141 188.417 173.588 189.034C172.035 189.651 170.365 189.918 168.697 189.818H144.379V226.614C144.479 228.697 144.096 230.774 143.258 232.683C142.421 234.592 141.152 236.281 139.552 237.618C136.428 240.237 132.47 241.652 128.394 241.606C124.272 241.639 120.27 240.228 117.08 237.618ZM112.021 165.514V37.6346L32.4215 165.514H112.021Z" fill="#263238"/>
<path d="M248.793 238.363C239.49 234.303 231.252 228.147 224.722 220.376C218.164 212.165 213.043 202.904 209.575 192.984C205.646 182.267 202.883 171.159 201.335 159.85C199.719 147.537 198.942 135.13 199.007 122.712C199.007 40.904 226.942 0 282.812 0C338.681 0 366.549 40.904 366.415 122.712C366.47 135.07 365.718 147.419 364.164 159.679C362.667 170.99 359.929 182.101 356.001 192.813C352.534 202.733 347.413 211.994 340.854 220.205C334.316 227.986 326.082 234.166 316.783 238.269C306.093 242.996 294.498 245.326 282.812 245.098C271.119 245.333 259.514 243.035 248.793 238.363ZM299.324 214.882C303.999 212.888 308.242 210.004 311.817 206.393C315.438 202.538 318.414 198.126 320.632 193.325C323.08 188.239 325.059 182.941 326.545 177.495C328.11 171.562 329.251 165.526 329.959 159.431C330.798 152.706 331.356 146.545 331.636 140.947C331.915 135.35 332.049 129.271 332.039 122.712C332.039 115.832 331.905 109.479 331.636 103.654C331.367 97.8292 330.782 91.58 329.882 84.9067C329.109 78.8161 327.943 72.7819 326.39 66.8421C324.921 61.4513 322.941 56.213 320.477 51.1985C318.242 46.4739 315.26 42.1402 311.647 38.364C308.092 34.8247 303.873 32.0239 299.231 30.1232C288.62 26.0264 276.864 26.0264 266.252 30.1232C261.645 32.0011 257.456 34.7759 253.93 38.2864C250.343 42.0462 247.369 46.3456 245.115 51.0278C242.629 55.9972 240.673 61.2147 239.28 66.5938C237.765 72.5693 236.624 78.6337 235.865 84.7515C234.965 91.5179 234.381 97.8188 234.112 103.654C233.843 109.489 233.703 115.842 233.693 122.712C233.693 129.261 233.832 135.365 234.112 141.025C234.391 146.684 234.944 152.892 235.772 159.648C236.488 165.742 237.629 171.778 239.186 177.713C240.652 183.156 242.61 188.455 245.037 193.543C247.233 198.314 250.183 202.7 253.775 206.532C257.323 210.121 261.542 212.979 266.19 214.944C276.812 219.268 288.703 219.268 299.324 214.944V214.882Z" fill="#263238"/>
<path d="M510.218 237.618C508.576 236.308 507.267 234.628 506.399 232.716C505.53 230.803 505.126 228.713 505.22 226.614V189.818H410.304C407.985 189.905 405.675 189.489 403.532 188.6C401.389 187.711 399.464 186.368 397.888 184.665C394.784 181.381 393.08 177.017 393.139 172.498C393.127 168.826 394.207 165.234 396.243 162.178L487.156 19.3061C493.922 8.76328 502.97 3.49186 514.299 3.49186C520.416 3.26153 526.395 5.3451 531.045 9.32716C535.483 13.207 537.702 18.975 537.702 26.6313V165.514H561.851C563.519 165.414 565.188 165.682 566.741 166.299C568.294 166.915 569.692 167.866 570.836 169.084C572.878 171.477 574 174.52 574 177.666C574 180.812 572.878 183.855 570.836 186.248C569.692 187.466 568.294 188.417 566.741 189.034C565.188 189.651 563.519 189.918 561.851 189.818H537.516V226.614C537.617 228.697 537.233 230.774 536.396 232.683C535.559 234.592 534.29 236.281 532.69 237.618C529.566 240.237 525.608 241.652 521.531 241.606C517.41 241.639 513.407 240.228 510.218 237.618ZM505.22 165.514V37.6345L425.621 165.514H505.22Z" fill="#263238"/>
</svg>
