<svg width="40" height="40" viewBox="0 0 40 40" fill="none" xmlns="http://www.w3.org/2000/svg">
<circle cx="20" cy="20" r="19.5" fill="#1C1C1C" stroke="#262626"/>
<path fill-rule="evenodd" clip-rule="evenodd" d="M23.6285 15.1211C23.903 15.3652 24.2576 15.5 24.625 15.5H28C28.2761 15.5 28.5 15.7239 28.5 16V25C28.5 25.8284 27.8284 26.5 27 26.5H13C12.1716 26.5 11.5 25.8284 11.5 25V16C11.5 15.7239 11.7239 15.5 12 15.5H15.375C15.7424 15.5 16.097 15.3652 16.3715 15.1211L17.7691 13.8789C18.0436 13.6348 18.3982 13.5 18.7656 13.5H21.2344C21.6018 13.5 21.9564 13.6348 22.2309 13.8789L23.6285 15.1211ZM12 14H15.375L16.7725 12.7578C17.3217 12.2696 18.0309 12 18.7656 12H21.2344C21.9691 12 22.6783 12.2696 23.2275 12.7578L24.625 14H28C29.1046 14 30 14.8954 30 16V25C30 26.6569 28.6569 28 27 28H13C11.3431 28 10 26.6569 10 25V16C10 14.8954 10.8954 14 12 14ZM20 18.5C21.1046 18.5 22 19.3954 22 20.5C22 21.6046 21.1046 22.5 20 22.5C18.8954 22.5 18 21.6046 18 20.5C18 19.3954 18.8954 18.5 20 18.5ZM20 17C21.933 17 23.5 18.567 23.5 20.5C23.5 22.433 21.933 24 20 24C18.067 24 16.5 22.433 16.5 20.5C16.5 18.567 18.067 17 20 17Z" fill="white"/>
</svg>
