<svg width="19" height="21" viewBox="0 0 19 21" fill="none" xmlns="http://www.w3.org/2000/svg">
<path fill-rule="evenodd" clip-rule="evenodd" d="M15 6C13.8954 6 13 5.10457 13 4C13 2.89543 13.8954 2 15 2C16.1046 2 17 2.89543 17 4C17 5.10457 16.1046 6 15 6ZM11.6797 5.1102C11.5632 4.76136 11.5 4.38806 11.5 4C11.5 2.067 13.067 0.5 15 0.5C16.933 0.5 18.5 2.067 18.5 4C18.5 5.933 16.933 7.5 15 7.5C13.9947 7.5 13.0884 7.07616 12.45 6.39743L7.32026 9.3898C7.43685 9.73864 7.5 10.1119 7.5 10.5C7.5 10.8881 7.43685 11.2614 7.32026 11.6102L12.45 14.6026C13.0884 13.9238 13.9947 13.5 15 13.5C16.933 13.5 18.5 15.067 18.5 17C18.5 18.933 16.933 20.5 15 20.5C13.067 20.5 11.5 18.933 11.5 17C11.5 16.6119 11.5632 16.2386 11.6797 15.8898L6.54998 12.8974C5.91161 13.5762 5.0053 14 4 14C2.067 14 0.5 12.433 0.5 10.5C0.5 8.567 2.067 7 4 7C5.0053 7 5.91161 7.42384 6.54998 8.10257L11.6797 5.1102ZM4 12.5C2.89543 12.5 2 11.6046 2 10.5C2 9.39543 2.89543 8.5 4 8.5C5.10457 8.5 6 9.39543 6 10.5C6 11.6046 5.10457 12.5 4 12.5ZM13 17C13 18.1046 13.8954 19 15 19C16.1046 19 17 18.1046 17 17C17 15.8954 16.1046 15 15 15C13.8954 15 13 15.8954 13 17Z" fill="white"/>
</svg>
