<svg width="19" height="18" viewBox="0 0 19 18" fill="none" xmlns="http://www.w3.org/2000/svg">
<path fill-rule="evenodd" clip-rule="evenodd" d="M8.00322 15.4962V11.8333H6.50314L3.50053 11.8333C1.70923 11.8333 0.317091 10.3605 0.519608 8.67967L1.0005 4.68835C1.28798 2.30231 3.42587 0.500004 5.96871 0.500004L13.0012 0.500006L13.0016 0.5H14.5017H16.4999C17.6045 0.5 18.5 1.34568 18.5 2.38889V9.94444C18.5 10.9876 17.6045 11.8333 16.4999 11.8333H14.5017H14.1773L12.063 16.3121C11.7219 17.0346 10.9626 17.5 10.125 17.5C8.95319 17.5 8.00322 16.6029 8.00322 15.4962ZM5.96871 1.91667L13.0012 1.91667L13.0012 10.8456L10.6929 15.7353C10.5929 15.947 10.3705 16.0833 10.125 16.0833C9.78166 16.0833 9.5033 15.8205 9.5033 15.4962V11.8333C9.5033 11.0509 8.83169 10.4167 8.00322 10.4167L3.50053 10.4167C2.60488 10.4167 1.90881 9.68025 2.01007 8.83983L2.49096 4.84851C2.6922 3.17828 4.18872 1.91667 5.96871 1.91667ZM16.4999 10.4167H14.5017V1.91667H16.4999C16.7761 1.91667 16.9999 2.12809 16.9999 2.38889V9.94444C16.9999 10.2052 16.7761 10.4167 16.4999 10.4167Z" fill="white"/>
</svg>
