<svg width="24" height="24" viewBox="0 0 24 24" fill="none" xmlns="http://www.w3.org/2000/svg">
<path fill-rule="evenodd" clip-rule="evenodd" d="M18.2407 5.86013L17.2857 4.81814C16.9165 4.41533 16.2924 4.38341 15.884 4.74644L14.3213 6.13582L16.6194 8.67288L18.1714 7.28C18.5854 6.90839 18.6166 6.27029 18.2407 5.86013ZM5.5 13.9783L13.2002 7.13251L15.5031 9.6748L7.90674 16.4926H5.5V13.9783ZM19.3465 4.84665L18.3915 3.80466C17.4686 2.79764 15.9083 2.71782 14.8874 3.62542L4.33557 13.0065C4.12212 13.1962 4 13.4682 4 13.7538V16.9926C4 17.5449 4.44772 17.9926 5 17.9926H8.09822C8.34478 17.9926 8.58266 17.9015 8.76616 17.7368L19.1733 8.39632C20.2084 7.46729 20.2863 5.87204 19.3465 4.84665ZM20 19.49H4V20.99H20V19.49Z" fill="white"/>
</svg>
