<svg width="39" height="39" viewBox="0 0 39 39" fill="none" xmlns="http://www.w3.org/2000/svg">
<path d="M5.91289 20.1546C5.45679 20.1546 5.01094 20.2898 4.63172 20.5432C4.25249 20.7966 3.95692 21.1567 3.78238 21.5781C3.60784 21.9995 3.56217 22.4631 3.65115 22.9105C3.74013 23.3578 3.95976 23.7687 4.28227 24.0912C4.60477 24.4137 5.01567 24.6333 5.463 24.7223C5.91033 24.8113 6.374 24.7656 6.79537 24.5911C7.21674 24.4165 7.5769 24.121 7.83029 23.7417C8.08368 23.3625 8.21893 22.9167 8.21893 22.4606C8.21845 21.8491 7.97534 21.2629 7.54298 20.8305C7.11062 20.3981 6.52434 20.155 5.91289 20.1546ZM5.91289 23.7163C5.66411 23.7163 5.42092 23.6426 5.21407 23.5043C5.00722 23.3661 4.84599 23.1697 4.75079 22.9398C4.65559 22.71 4.63068 22.4571 4.67921 22.2131C4.72775 21.9691 4.84755 21.745 5.02346 21.5691C5.19937 21.3932 5.4235 21.2734 5.66749 21.2248C5.91149 21.1763 6.1644 21.2012 6.39424 21.2964C6.62408 21.3916 6.82053 21.5528 6.95874 21.7597C7.09696 21.9665 7.17073 22.2097 7.17073 22.4585C7.17049 22.7919 7.03786 23.1116 6.802 23.3473C6.56613 23.583 6.24633 23.7154 5.91289 23.7154V23.7163ZM15.8762 20.1546C15.4201 20.1546 14.9742 20.2898 14.595 20.5432C14.2158 20.7966 13.9202 21.1567 13.7457 21.5781C13.5711 21.9995 13.5255 22.4631 13.6145 22.9105C13.7034 23.3578 13.9231 23.7687 14.2456 24.0912C14.5681 24.4137 14.979 24.6333 15.4263 24.7223C15.8736 24.8113 16.3373 24.7656 16.7587 24.5911C17.18 24.4165 17.5402 24.121 17.7936 23.7417C18.047 23.3625 18.1822 22.9167 18.1822 22.4606C18.1818 21.8491 17.9386 21.2629 17.5063 20.8305C17.0739 20.3981 16.4876 20.155 15.8762 20.1546ZM15.8762 23.7163C15.6274 23.7163 15.3842 23.6426 15.1774 23.5043C14.9705 23.3661 14.8093 23.1697 14.7141 22.9398C14.6189 22.71 14.594 22.4571 14.6425 22.2131C14.6911 21.9691 14.8109 21.745 14.9868 21.5691C15.1627 21.3932 15.3868 21.2734 15.6308 21.2248C15.8748 21.1763 16.1277 21.2012 16.3575 21.2964C16.5874 21.3916 16.7838 21.5528 16.922 21.7597C17.0603 21.9665 17.134 22.2097 17.134 22.4585C17.1338 22.7919 17.0012 23.1116 16.7653 23.3473C16.5294 23.583 16.2096 23.7154 15.8762 23.7154V23.7163ZM10.8945 25.1356C10.4384 25.1356 9.9926 25.2708 9.61337 25.5242C9.23414 25.7776 8.93857 26.1378 8.76403 26.5591C8.58949 26.9805 8.54383 27.4442 8.6328 27.8915C8.72178 28.3388 8.94141 28.7497 9.26392 29.0722C9.58643 29.3947 9.99732 29.6143 10.4447 29.7033C10.892 29.7923 11.3556 29.7466 11.777 29.5721C12.1984 29.3976 12.5586 29.102 12.8119 28.7228C13.0653 28.3435 13.2006 27.8977 13.2006 27.4416C13.2002 26.8301 12.9571 26.2438 12.5247 25.8114C12.0923 25.3791 11.506 25.136 10.8945 25.1356ZM10.8945 28.6973C10.6458 28.6973 10.4026 28.6236 10.1957 28.4854C9.98887 28.3471 9.82765 28.1507 9.73244 27.9209C9.63724 27.691 9.61233 27.4381 9.66087 27.1941C9.7094 26.9501 9.8292 26.726 10.0051 26.5501C10.181 26.3742 10.4051 26.2544 10.6491 26.2058C10.8931 26.1573 11.1461 26.1822 11.3759 26.2774C11.6057 26.3726 11.8022 26.5338 11.9404 26.7407C12.0786 26.9475 12.1524 27.1907 12.1524 27.4395C12.1524 27.7731 12.0199 28.093 11.784 28.3289C11.5481 28.5648 11.2281 28.6973 10.8945 28.6973ZM15.8762 30.1169C15.4201 30.1169 14.9742 30.2521 14.595 30.5055C14.2158 30.7589 13.9202 31.1191 13.7457 31.5404C13.5711 31.9618 13.5255 32.4255 13.6145 32.8728C13.7034 33.3201 13.9231 33.731 14.2456 34.0535C14.5681 34.376 14.979 34.5957 15.4263 34.6846C15.8736 34.7736 16.3373 34.7279 16.7587 34.5534C17.18 34.3789 17.5402 34.0833 17.7936 33.7041C18.047 33.3249 18.1822 32.879 18.1822 32.4229C18.1817 31.8115 17.9385 31.2253 17.5062 30.7929C17.0738 30.3606 16.4876 30.1175 15.8762 30.1169ZM15.8762 33.679C15.6274 33.679 15.3842 33.6052 15.1774 33.467C14.9705 33.3288 14.8093 33.1323 14.7141 32.9025C14.6189 32.6726 14.594 32.4197 14.6425 32.1757C14.6911 31.9317 14.8109 31.7076 14.9868 31.5317C15.1627 31.3558 15.3868 31.236 15.6308 31.1875C15.8748 31.1389 16.1277 31.1638 16.3575 31.259C16.5874 31.3542 16.7838 31.5155 16.922 31.7223C17.0603 31.9292 17.134 32.1723 17.134 32.4211C17.134 32.7547 17.0015 33.0747 16.7656 33.3105C16.5297 33.5464 16.2098 33.679 15.8762 33.679ZM5.91289 30.1169C5.45679 30.1169 5.01094 30.2521 4.63172 30.5055C4.25249 30.7589 3.95692 31.1191 3.78238 31.5404C3.60784 31.9618 3.56217 32.4255 3.65115 32.8728C3.74013 33.3201 3.95976 33.731 4.28227 34.0535C4.60477 34.376 5.01567 34.5957 5.463 34.6846C5.91033 34.7736 6.374 34.7279 6.79537 34.5534C7.21674 34.3789 7.5769 34.0833 7.83029 33.7041C8.08368 33.3249 8.21893 32.879 8.21893 32.4229C8.21837 31.8115 7.97524 31.2253 7.54289 30.7929C7.11055 30.3606 6.52432 30.1175 5.91289 30.1169ZM5.91289 33.679C5.66411 33.679 5.42092 33.6052 5.21407 33.467C5.00722 33.3288 4.84599 33.1323 4.75079 32.9025C4.65559 32.6726 4.63068 32.4197 4.67921 32.1757C4.72775 31.9317 4.84755 31.7076 5.02346 31.5317C5.19937 31.3558 5.4235 31.236 5.66749 31.1875C5.91149 31.1389 6.1644 31.1638 6.39424 31.259C6.62408 31.3542 6.82053 31.5155 6.95874 31.7223C7.09696 31.9292 7.17073 32.1723 7.17073 32.4211C7.17073 32.7547 7.03821 33.0747 6.80231 33.3105C6.56642 33.5464 6.24649 33.679 5.91289 33.679ZM16.1269 10.43C15.7317 10.6579 15.413 10.9979 15.2111 11.407C15.0092 11.816 14.9331 12.2757 14.9926 12.728C15.052 13.1803 15.2442 13.6048 15.5449 13.9478C15.8456 14.2908 16.2413 14.537 16.6819 14.6551C17.1226 14.7731 17.5883 14.7579 18.0203 14.6113C18.4522 14.4646 18.831 14.1932 19.1086 13.8312C19.3863 13.4693 19.5504 13.0331 19.5801 12.5779C19.6098 12.1227 19.5039 11.6689 19.2757 11.274C18.9694 10.7451 18.466 10.3593 17.8757 10.2011C17.2854 10.0429 16.6565 10.1252 16.1269 10.43ZM17.9079 13.5147C17.6925 13.6394 17.4449 13.6975 17.1965 13.6814C16.9481 13.6653 16.71 13.5759 16.5124 13.4245C16.3149 13.2731 16.1667 13.0664 16.0866 12.8307C16.0065 12.595 15.9982 12.3409 16.0627 12.1005C16.1271 11.86 16.2615 11.6441 16.4487 11.4801C16.636 11.316 16.8677 11.2113 17.1145 11.179C17.3613 11.1467 17.6122 11.1884 17.8353 11.2987C18.0584 11.4091 18.2438 11.5832 18.3679 11.799C18.5341 12.0876 18.5789 12.4304 18.4927 12.7521C18.4065 13.0738 18.1962 13.3479 17.9079 13.5147ZM24.6811 12.0233C24.0969 11.8839 23.4813 11.9779 22.9653 12.2854C22.4493 12.5928 22.0737 13.0895 21.9183 13.6697C21.7629 14.2499 21.84 14.8678 22.1332 15.392C22.4264 15.9162 22.9125 16.3053 23.4882 16.4766C23.6836 16.529 23.8849 16.5557 24.0872 16.556C24.6459 16.5545 25.1851 16.3503 25.6046 15.9813C26.024 15.6123 26.2953 15.1035 26.3678 14.5495C26.4404 13.9956 26.3094 13.4341 25.9992 12.9694C25.6889 12.5048 25.2206 12.1686 24.6811 12.0233ZM24.7131 15.3386C24.5461 15.4354 24.3589 15.4924 24.1663 15.5053C23.9736 15.5181 23.7806 15.4865 23.6021 15.4127C23.4237 15.339 23.2646 15.2251 23.1372 15.08C23.0098 14.9349 22.9175 14.7624 22.8675 14.5759C22.8176 14.3894 22.8112 14.1939 22.8489 14.0045C22.8866 13.8152 22.9674 13.637 23.0851 13.4839C23.2027 13.3308 23.354 13.2068 23.5273 13.1216C23.7006 13.0363 23.8911 12.9921 24.0842 12.9924C24.1947 12.9926 24.3048 13.0072 24.4115 13.0358C24.6514 13.1005 24.8667 13.2348 25.0304 13.4217C25.194 13.6086 25.2986 13.8398 25.331 14.0861C25.3635 14.3324 25.3222 14.5828 25.2125 14.8057C25.1028 15.0286 24.9296 15.214 24.7146 15.3386H24.7131ZM31.4863 13.8465C30.9019 13.7067 30.286 13.8004 29.7697 14.1078C29.2535 14.4152 28.8775 14.912 28.722 15.4924C28.5665 16.0728 28.6437 16.691 28.9372 17.2154C29.2306 17.7397 29.7171 18.1288 30.2932 18.2999C30.8775 18.4397 31.4934 18.346 32.0097 18.0386C32.526 17.7312 32.9019 17.2344 33.0574 16.654C33.2129 16.0736 33.1357 15.4554 32.8423 14.931C32.5489 14.4067 32.0623 14.0176 31.4863 13.8465ZM32.1038 16.3987C32.0432 16.6255 31.9203 16.8308 31.749 16.9914C31.5778 17.152 31.365 17.2614 31.1347 17.3073C30.9045 17.3533 30.666 17.3338 30.4463 17.2513C30.2265 17.1687 30.0342 17.0262 29.8912 16.8401C29.7482 16.6539 29.6601 16.4314 29.637 16.1978C29.6138 15.9642 29.6565 15.7287 29.7603 15.5181C29.864 15.3075 30.0245 15.1301 30.2238 15.006C30.4231 14.882 30.6532 14.8161 30.8879 14.816C30.9984 14.8161 31.1083 14.8306 31.215 14.8591C31.5369 14.9456 31.8114 15.1563 31.978 15.445C32.1447 15.7337 32.1899 16.0767 32.1038 16.3987Z" fill="#00E1D6"/>
<path d="M38.103 16.7456L28.9304 0.860717C28.7021 0.465431 28.3263 0.176964 27.8854 0.0587454C27.4445 -0.059473 26.9748 0.00223588 26.5794 0.230303L10.694 9.40319C10.2988 9.63178 10.0105 10.008 9.89259 10.4491C9.77466 10.8901 9.83672 11.36 10.0651 11.7553L12.8324 16.5471H1.72234C1.26596 16.5476 0.828373 16.729 0.505517 17.0515C0.18266 17.3741 0.000871784 17.8115 0 18.2679L0 36.6113C0.000554933 37.0679 0.182203 37.5056 0.505094 37.8285C0.827985 38.1513 1.26575 38.3329 1.72234 38.3333H20.0656C20.5221 38.3329 20.9599 38.1513 21.2827 37.8284C21.6056 37.5056 21.7871 37.0679 21.7876 36.6113V28.1542L37.4732 19.0981C37.669 18.9849 37.8405 18.8343 37.9781 18.6548C38.1157 18.4754 38.2165 18.2706 38.2749 18.0521C38.3333 17.8337 38.3481 17.6059 38.3185 17.3817C38.2888 17.1575 38.2153 16.9414 38.1021 16.7456H38.103ZM20.7388 36.6113C20.7386 36.7898 20.6676 36.961 20.5414 37.0873C20.4152 37.2136 20.2441 37.2847 20.0656 37.2851H1.72234C1.5437 37.2849 1.37245 37.2138 1.24613 37.0875C1.11981 36.9612 1.04874 36.7899 1.0485 36.6113V18.2679C1.04874 18.0893 1.11981 17.918 1.24613 17.7917C1.37245 17.6654 1.5437 17.5943 1.72234 17.5941H20.0656C20.2441 17.5945 20.4152 17.6656 20.5414 17.7919C20.6676 17.9182 20.7386 18.0894 20.7388 18.2679V36.6113ZM37.2627 17.781C37.24 17.8666 37.2006 17.9468 37.1466 18.017C37.0927 18.0873 37.0253 18.1461 36.9485 18.1901L21.787 26.944V18.2679C21.7863 17.8116 21.6047 17.3742 21.282 17.0516C20.9593 16.7289 20.5219 16.5474 20.0656 16.5468H14.0414L10.9717 11.23C10.9274 11.1534 10.8987 11.0689 10.8871 10.9811C10.8755 10.8934 10.8814 10.8043 10.9042 10.7188C10.9271 10.6334 10.9666 10.5532 11.0205 10.483C11.0744 10.4129 11.1415 10.354 11.2182 10.3097L27.1035 1.13744C27.1801 1.09315 27.2647 1.06439 27.3524 1.05283C27.4402 1.04126 27.5293 1.0471 27.6148 1.07002C27.7003 1.09294 27.7804 1.13249 27.8506 1.1864C27.9208 1.24031 27.9796 1.30753 28.0238 1.38421L37.1962 17.2697C37.2406 17.3463 37.2693 17.4309 37.2807 17.5187C37.2921 17.6064 37.286 17.6956 37.2627 17.781Z" fill="#00E1D6"/>
</svg>
