<svg width="24" height="24" viewBox="0 0 24 24" fill="none" xmlns="http://www.w3.org/2000/svg">
<path fill-rule="evenodd" clip-rule="evenodd" d="M3 8.96855C3 6.23678 5.16494 3.99023 7.87453 3.99023C9.28971 3.99023 10.5168 4.73879 11.3676 5.75927C11.6045 6.04354 11.8168 6.3538 11.9997 6.68285C12.1825 6.35388 12.3946 6.04368 12.6314 5.75945C13.4816 4.73887 14.7083 3.99023 16.1236 3.99023C18.8332 3.99023 20.9981 6.23678 20.9981 8.96855C20.9981 11.3908 19.4893 13.5387 17.7652 15.3062C16.4435 16.6612 14.8908 17.8923 13.5947 18.9199C13.1917 19.2395 12.8134 19.5394 12.4747 19.8172C12.1981 20.044 11.8 20.044 11.5234 19.8172C11.1847 19.5394 10.8064 19.2395 10.4034 18.9199C9.10728 17.8923 7.55461 16.6612 6.23286 15.3062C4.50876 13.5387 3 11.3908 3 8.96855ZM12.75 9.49023H11.25C11.25 8.51119 10.8583 7.49096 10.2154 6.71977C9.5729 5.94907 8.73726 5.49023 7.87453 5.49023C6.02829 5.49023 4.5 7.02985 4.5 8.96855C4.5 10.7746 5.64272 12.553 7.30662 14.2588C8.5544 15.538 9.99519 16.6807 11.2792 17.6991C11.5257 17.8947 11.7665 18.0857 11.9991 18.2721C12.2316 18.0857 12.4724 17.8947 12.7189 17.6991C14.0029 16.6807 15.4437 15.538 16.6915 14.2588C18.3554 12.553 19.4981 10.7746 19.4981 8.96855C19.4981 7.02985 17.9698 5.49023 16.1236 5.49023C15.2609 5.49023 14.4258 5.94899 13.7838 6.71959C13.1414 7.4907 12.75 8.51098 12.75 9.49023Z" fill="white"/>
</svg>
