<svg width="18" height="17" viewBox="0 0 18 17" fill="none" xmlns="http://www.w3.org/2000/svg">
<path fill-rule="evenodd" clip-rule="evenodd" d="M10.4968 2.00382V5.66667H11.9969L14.9995 5.66667C16.7908 5.66667 18.1829 7.13948 17.9804 8.82033L17.4995 12.8116C17.212 15.1977 15.0741 17 12.5313 17L5.4988 17L5.49836 17H3.99828H2.0001C0.895477 17 0 16.1543 0 15.1111V7.55556C0 6.51235 0.895478 5.66667 2.00011 5.66667H3.99828H4.32266L6.43705 1.18787C6.77812 0.465377 7.53735 2.62609e-06 8.37497 0C9.54681 -1.7046e-06 10.4968 0.897142 10.4968 2.00382ZM12.5313 15.5833L5.4988 15.5833L5.49879 6.65436L7.80713 1.76473C7.90707 1.55303 8.12954 1.41667 8.37497 1.41667C8.71834 1.41667 8.9967 1.67954 8.9967 2.00382V5.66667C8.9967 6.44907 9.66831 7.08333 10.4968 7.08333L14.9995 7.08334C15.8951 7.08334 16.5912 7.81975 16.4899 8.66017L16.009 12.6515C15.8078 14.3217 14.3113 15.5833 12.5313 15.5833ZM2.00011 7.08334H3.99828V15.5833H2.0001C1.72395 15.5833 1.50008 15.3719 1.50008 15.1111V7.55556C1.50008 7.29476 1.72395 7.08334 2.00011 7.08334Z" fill="white"/>
</svg>
