<svg width="24" height="24" viewBox="0 0 24 24" fill="none" xmlns="http://www.w3.org/2000/svg">
<path fill-rule="evenodd" clip-rule="evenodd" d="M17 9.99023V7.99023C17 5.22881 14.7614 2.99023 12 2.99023C9.23858 2.99023 7 5.22881 7 7.99023V9.99023H6C5.44772 9.99023 5 10.4379 5 10.9902V15.9902C5 18.7517 7.23858 20.9902 10 20.9902H14C16.7614 20.9902 19 18.7517 19 15.9902V10.9902C19 10.4379 18.5523 9.99023 18 9.99023H17ZM15.5 9.99023H8.5V7.99023C8.5 6.05724 10.067 4.49023 12 4.49023C13.933 4.49023 15.5 6.05724 15.5 7.99023V9.99023ZM6.5 11.4902V15.9902C6.5 17.9232 8.067 19.4902 10 19.4902H14C15.933 19.4902 17.5 17.9232 17.5 15.9902V11.4902H6.5ZM13.509 14.4934C13.509 15.0525 13.2034 15.5404 12.75 15.7993V16.9902C12.75 17.2664 12.5261 17.4902 12.25 17.4902H11.75C11.4739 17.4902 11.25 17.2664 11.25 16.9902V15.7941C10.8015 15.5339 10.5 15.0488 10.5 14.4934C10.5 13.6632 11.1736 12.9902 12.0045 12.9902C12.8354 12.9902 13.509 13.6632 13.509 14.4934Z" fill="white"/>
</svg>
