<svg width="238" height="42" viewBox="0 0 238 42" fill="none" xmlns="http://www.w3.org/2000/svg">
<g clip-path="url(#clip0_296_432)">
<path d="M65.4 20.6C65.4 30.52 63.16 33.56 56.8 33.56C50.44 33.56 48.2 30.52 48.2 20.6C48.2 10.68 50.44 7.64001 56.8 7.64001C63.16 7.68001 65.4 10.72 65.4 20.6ZM52.92 20.6C52.92 27.56 53.84 29.68 56.8 29.68C59.8 29.68 60.6799 27.56 60.6799 20.6C60.6799 13.64 59.8 11.52 56.8 11.52C53.8 11.52 52.92 13.68 52.92 20.6Z" fill="white"/>
<path d="M82.5601 19.76V33.08H78.2401V21.12C78.2401 19.12 78.0001 18.6 77.0401 18.6C75.8401 18.6 74.6401 19.36 72.8801 20.68L72.9201 33.08H68.5601V15.36H72.1601L72.4401 17.96C74.4401 16 76.4801 14.84 78.5601 14.84C81.1601 14.84 82.5601 16.6 82.5601 19.76Z" fill="white"/>
<path d="M90.3998 27.6C90.3998 28.96 90.9598 29.64 91.9998 29.64H93.1198L93.6398 32.88C92.9198 33.28 91.1198 33.48 90.2398 33.48C87.6798 33.48 86.0798 31.76 86.0798 28.64V7.76001H90.4398L90.3998 27.6Z" fill="white"/>
<path d="M98.8799 7.68005C99.7199 7.68005 100.16 8.16005 100.16 8.96005V10.9601C100.16 11.8001 99.7199 12.2401 98.8799 12.2401H96.8799C96.0399 12.2401 95.6399 11.8001 95.6399 10.9601V8.96005C95.6399 8.16005 96.0399 7.68005 96.8799 7.68005H98.8799ZM95.7599 33.0801V15.3601H100.08V33.0801H95.7599Z" fill="white"/>
<path d="M117.8 19.76V33.08H113.48V21.12C113.48 19.12 113.24 18.6 112.28 18.6C111.08 18.6 109.88 19.36 108.12 20.68L108.16 33.08H103.8V15.36H107.4L107.68 17.96C109.68 16 111.72 14.84 113.8 14.84C116.4 14.84 117.8 16.6 117.8 19.76Z" fill="white"/>
<path d="M134 29.48L134.36 32.32C132.68 33.24 130.08 33.52 128.12 33.52C122.68 33.52 120.68 30.96 120.68 24.2C120.68 17.2 122.84 14.88 127.96 14.88C132.92 14.88 134.8 17 134.8 21.04C134.8 24.24 133.48 26.12 130.6 26.12H125.32C125.52 29.32 126.48 29.96 128.68 29.96C129.92 29.88 132.04 29.76 134 29.48ZM125.2 23H129.32C130.36 23 130.4 21.88 130.4 20.92C130.44 19.04 129.96 18.32 128.08 18.32C125.92 18.32 125.28 19.28 125.2 23Z" fill="white"/>
<path d="M150.88 8.52001L150.64 11.72C148.96 11.64 146.48 11.6 144.44 11.6C142.32 11.6 141.6 11.76 141.6 14.4C141.6 16.6 142.2 17.12 143.64 17.72L147.4 19.2C150.64 20.48 151.64 22.8 151.64 26.48C151.64 32.16 149.68 33.44 144.12 33.44C142.92 33.44 140.4 33.36 137.36 32.64L137.6 29.32C141.68 29.44 143 29.48 144.16 29.48C146.52 29.48 147.04 29 147.04 26.44C147.04 24.16 146.44 23.72 145.2 23.16L141.24 21.56C138.16 20.36 137.08 18.04 137.08 14.32C137.08 8.60001 139.2 7.64001 144.32 7.64001C146.24 7.72001 148.64 7.84001 150.88 8.52001Z" fill="white"/>
<path d="M158.88 27.6C158.88 28.96 159.44 29.64 160.48 29.64H161.6L162.12 32.88C161.4 33.28 159.6 33.48 158.72 33.48C156.16 33.48 154.56 31.76 154.56 28.64V7.76001H158.92L158.88 27.6Z" fill="white"/>
<path d="M178.24 24.24C178.24 31.04 176.2 33.56 170.84 33.56C165.48 33.56 163.48 31.04 163.48 24.24C163.48 17.44 165.52 14.88 170.84 14.88C176.2 14.84 178.24 17.44 178.24 24.24ZM168.04 24.24C168.04 28.8 168.6 30.08 170.84 30.08C173.08 30.08 173.68 28.8 173.68 24.24C173.68 19.64 173.12 18.4 170.84 18.4C168.64 18.36 168.04 19.64 168.04 24.24Z" fill="white"/>
<path d="M186.84 27.6C186.84 29.12 187.16 29.64 188.4 29.64H190.2L190.68 32.88C189.64 33.28 187.64 33.48 186.64 33.48C184 33.48 182.52 31.6 182.52 28.32V18.56H179.92V15.56L182.52 15.36V10.28H186.84V15.36H190.8V18.56H186.84V27.6Z" fill="white"/>
<path d="M201.8 12.04V33.08H197.28V12.04H191.32V8.12H207.76V12.04H201.8Z" fill="white"/>
<path d="M220.44 24.24C220.44 31.04 218.4 33.56 213.04 33.56C207.68 33.56 205.68 31.04 205.68 24.24C205.68 17.44 207.72 14.88 213.04 14.88C218.4 14.84 220.44 17.44 220.44 24.24ZM210.24 24.24C210.24 28.8 210.8 30.08 213.04 30.08C215.28 30.08 215.84 28.8 215.84 24.24C215.84 19.64 215.28 18.4 213.04 18.4C210.8 18.36 210.24 19.64 210.24 24.24Z" fill="white"/>
<path d="M238 24.36C238 31.32 236 33.52 232.4 33.52C230.64 33.52 228.92 33.04 227.64 31.92C227.72 33.08 227.76 34.24 227.72 35.48V40.16H223.4V15.36H226.96L227.28 17.92C228.48 16.12 230.92 14.88 233.12 14.88C236.56 14.88 238 18.36 238 24.36ZM233.48 24.32C233.48 19.84 232.92 18.48 231.4 18.48C230.16 18.48 229.12 19.24 227.72 20.68V29.2C228.88 29.56 229.8 29.96 231 29.96C232.84 29.96 233.48 29.04 233.48 24.32Z" fill="white"/>
<path fill-rule="evenodd" clip-rule="evenodd" d="M17.08 18.0399L2.72 12.1599C1.4 11.5999 0 12.5599 0 13.9599V33.7599C0 34.5599 0.48 35.2799 1.24 35.5999L15.6 41.4799C16.88 41.9999 18.32 41.0399 18.32 39.6399V19.8799C18.32 19.0799 17.84 18.3599 17.08 18.0399ZM13.08 34.0399C12.84 34.5999 12.52 34.9999 12.08 35.2399C11.64 35.5199 11.16 35.6399 10.56 35.5999C9.96 35.5999 9.36 35.4399 8.64 35.1199C8.28 34.9599 7.88 34.7599 7.4 34.4799C6.92 34.1999 6.48 33.8799 6.04 33.5199C5.6 33.1599 5.24 32.7599 4.96 32.3599C4.68 31.9599 4.52 31.5199 4.52 31.1199C4.52 30.7599 4.64 30.4399 4.88 30.2399C5.12 30.0399 5.44 29.9999 5.8 30.1599C5.96 30.1999 6.08 30.3199 6.24 30.4399C6.4 30.5599 6.56 30.7199 6.76 30.8399C7 31.0399 7.28 31.2399 7.56 31.4799C7.88 31.7199 8.24 31.9199 8.64 32.1199C9.32 32.3999 9.8 32.4399 10.12 32.2399C10.44 32.0399 10.6 31.5999 10.6 30.9599C10.6 30.4399 10.52 29.9999 10.36 29.7199C10.2 29.4399 10 29.1999 9.84 29.0399C9.64 28.8399 9.4 28.6399 9.16 28.4399C8.92 28.2399 8.68 28.0399 8.44 27.7999C7.96 27.4399 7.48 27.0399 7.04 26.6399C6.56 26.2399 6.16 25.7599 5.8 25.2399C5.44 24.7199 5.12 24.1599 4.88 23.4799C4.64 22.8399 4.52 22.0799 4.52 21.2399C4.52 20.4799 4.64 19.8399 4.84 19.3199C5.04 18.7999 5.36 18.3999 5.72 18.1599C6.12 17.8799 6.56 17.7599 7.12 17.7999C7.68 17.7999 8.28 17.9599 8.96 18.2399C9.24 18.3599 9.6 18.5199 10.04 18.7599C10.48 18.9999 10.92 19.2799 11.32 19.6399C11.72 19.9599 12.08 20.3599 12.4 20.7599C12.68 21.1599 12.84 21.5999 12.84 22.0399C12.84 22.4399 12.72 22.7199 12.48 22.9199C12.24 23.1199 11.92 23.1199 11.48 22.9599C11.32 22.8799 11.16 22.7999 11 22.6799C10.84 22.5599 10.72 22.4399 10.52 22.3199C10.36 22.1599 10.12 21.9999 9.92 21.8399C9.68 21.6799 9.4 21.5199 9.08 21.3599C8.84 21.2799 8.64 21.1999 8.4 21.1599C8.16 21.1199 8 21.1199 7.8 21.1999C7.64 21.2799 7.48 21.3999 7.4 21.5999C7.28 21.7999 7.24 22.0399 7.24 22.3999C7.24 22.9199 7.32 23.3199 7.52 23.6399C7.72 23.9199 7.88 24.1599 8.04 24.3199C8.28 24.5999 8.52 24.7999 8.76 24.9999C9 25.1999 9.2 25.3599 9.44 25.5599C9.92 25.9599 10.4 26.3599 10.84 26.7599C11.32 27.1599 11.72 27.6399 12.08 28.1599C12.44 28.6799 12.76 29.2399 13 29.9199C13.24 30.5599 13.36 31.3199 13.36 32.1599C13.44 32.8399 13.32 33.5199 13.08 34.0399Z" fill="#507BED"/>
<path fill-rule="evenodd" clip-rule="evenodd" d="M36.08 12.1599L21.72 18.0399C21 18.3599 20.48 19.0799 20.48 19.8799V39.6799C20.48 41.0799 21.88 42.0399 23.2 41.5199L37.56 35.5999C38.28 35.2799 38.8 34.5599 38.8 33.7599V13.9599C38.8 12.5599 37.36 11.5999 36.08 12.1599ZM34.04 19.2399C33.76 19.6399 33.44 19.9199 33.08 20.0799L31.04 20.9599V33.3199C31.04 33.7199 30.92 34.1199 30.64 34.5599C30.36 34.9599 30.08 35.2399 29.68 35.3999C29.32 35.5599 29 35.5599 28.72 35.3599C28.44 35.1599 28.32 34.8799 28.32 34.4799V22.1199L26.28 22.9999C25.88 23.1599 25.56 23.1599 25.32 22.9599C25.08 22.7599 24.92 22.4799 24.92 22.0799C24.92 21.9199 24.96 21.7199 25.04 21.5199C25.12 21.3199 25.2 21.1199 25.32 20.9199C25.44 20.7199 25.6 20.5199 25.76 20.3599C25.92 20.1999 26.08 20.0799 26.28 19.9999L33 17.1199C33.36 16.9599 33.64 16.9999 33.92 17.1599C34.2 17.3199 34.36 17.6399 34.36 18.0399C34.44 18.4399 34.28 18.8399 34.04 19.2399Z" fill="#28AEE2"/>
<path fill-rule="evenodd" clip-rule="evenodd" d="M24.6001 5.99999C23.7201 5.59999 22.7601 5.43999 21.8001 5.47999C20.8401 5.51999 19.9201 5.71999 19.0801 6.07999L14.8401 7.83999C13.9601 8.19999 13.4801 8.55999 13.3201 8.95999C13.2001 9.35999 13.6001 9.71999 14.5601 10.16C15.5201 10.56 16.4401 10.76 17.3601 10.68C18.2801 10.64 19.1601 10.44 20.0401 10.08L24.2801 8.31999C25.1201 7.95999 25.6001 7.59999 25.7601 7.19999C25.8801 6.75999 25.4801 6.35999 24.6001 5.99999ZM34.8801 6.11999L21.6401 0.559985C20.2001 -0.0400147 18.5601 -0.0400147 17.1201 0.559985L3.92007 6.11999C2.12007 6.87999 2.12007 9.43999 3.92007 10.2L17.3201 15.76C18.8001 16.4 20.4001 16.4 21.8401 15.76L34.8801 10.2C36.6801 9.43999 36.6801 6.87999 34.8801 6.11999ZM29.8801 7.35999C29.8401 7.75999 29.6001 8.15999 29.1601 8.55999C28.7201 8.95999 28.1201 9.27999 27.3201 9.59999L23.0801 11.36C22.3201 11.68 21.5201 11.92 20.6401 12.12C19.7601 12.32 18.8401 12.4 17.8801 12.44C16.9201 12.48 15.9201 12.36 14.9201 12.2C13.9201 12 12.8801 11.72 11.8801 11.28C10.8801 10.84 10.1601 10.44 9.72007 9.99999C9.32007 9.55999 9.12007 9.15999 9.20007 8.75999C9.28007 8.35999 9.52007 7.95999 10.0001 7.59999C10.4801 7.23999 11.0801 6.87999 11.8401 6.59999L16.0401 4.79999C16.8401 4.47999 17.6801 4.23999 18.6001 4.03999C19.5201 3.87999 20.4801 3.75999 21.4401 3.75999C22.4001 3.75999 23.4001 3.83999 24.4001 3.99999C25.4001 4.15999 26.3601 4.47999 27.3201 4.87999C28.2801 5.27999 28.9201 5.67999 29.3601 6.11999C29.7601 6.51999 29.9201 6.91999 29.8801 7.35999Z" fill="#00E1D6"/>
</g>
<defs>
<clipPath id="clip0_296_432">
<rect width="238" height="42" fill="white"/>
</clipPath>
</defs>
</svg>
