<svg width="24" height="24" viewBox="0 0 24 24" fill="none" xmlns="http://www.w3.org/2000/svg">
<path fill-rule="evenodd" clip-rule="evenodd" d="M7.5 17.0189V17.689V19.6385L9.21734 18.5122L9.74701 18.1648L10.3655 18.302C10.8903 18.4185 11.437 18.4802 12 18.4802C16.1421 18.4802 19.5 15.1244 19.5 10.9848C19.5 6.84515 16.1421 3.48932 12 3.48932C7.85786 3.48932 4.5 6.84515 4.5 10.9848C4.5 13.2045 5.4636 15.1974 7.00037 16.572L7.5 17.0189ZM7.5 21.4315L7.49846 21.4326L7.41132 21.4897L6.77433 21.9075C6.44183 22.1256 6 21.8872 6 21.4897V20.7283V20.6241V20.6223V17.689C4.15875 16.0421 3 13.6486 3 10.9848C3 6.01722 7.02944 1.99023 12 1.99023C16.9706 1.99023 21 6.01722 21 10.9848C21 15.9523 16.9706 19.9793 12 19.9793C11.327 19.9793 10.6712 19.9055 10.0403 19.7655L7.5 21.4315ZM8.5003 11.9848C7.94819 11.9848 7.50061 11.5372 7.50061 10.9851C7.50061 10.433 7.94819 9.98537 8.5003 9.98537C9.05242 9.98537 9.5 10.433 9.5 10.9851C9.5 11.5372 9.05242 11.9848 8.5003 11.9848ZM11.0006 10.9851C11.0006 11.5372 11.4482 11.9848 12.0003 11.9848C12.5524 11.9848 13 11.5372 13 10.9851C13 10.433 12.5524 9.98537 12.0003 9.98537C11.4482 9.98537 11.0006 10.433 11.0006 10.9851ZM14.5006 10.9851C14.5006 11.5372 14.9482 11.9848 15.5003 11.9848C16.0524 11.9848 16.5 11.5372 16.5 10.9851C16.5 10.433 16.0524 9.98537 15.5003 9.98537C14.9482 9.98537 14.5006 10.433 14.5006 10.9851Z" fill="white"/>
</svg>
