<svg width="24" height="24" viewBox="0 0 24 24" fill="none" xmlns="http://www.w3.org/2000/svg">
<path fill-rule="evenodd" clip-rule="evenodd" d="M17.3788 16.4902L16.7683 8.64129C16.5861 6.29842 14.6318 4.49023 12.2819 4.49023H11.7181C9.36818 4.49023 7.41389 6.29842 7.23167 8.64129L6.6212 16.4902L17.3788 16.4902ZM5.73619 8.52497L5.11667 16.4902L4 16.4902V17.9902L5 17.9902H6.50453H8.12602C8.57006 19.7155 10.1362 20.9902 12 20.9902C13.8638 20.9902 15.4299 19.7155 15.874 17.9902H17.4955H19H20V16.4902H18.8833L18.2638 8.52498C18.0208 5.40116 15.4151 2.99023 12.2819 2.99023H11.7181C8.58487 2.99023 5.97915 5.40115 5.73619 8.52497ZM14.292 17.9902L9.70802 17.9902C10.0938 18.8732 10.9748 19.4902 12 19.4902C13.0252 19.4902 13.9062 18.8732 14.292 17.9902Z" fill="white"/>
</svg>
