<svg width="18" height="20" viewBox="0 0 18 20" fill="none" xmlns="http://www.w3.org/2000/svg">
<path fill-rule="evenodd" clip-rule="evenodd" d="M14.5 5.5C13.3954 5.5 12.5 4.60457 12.5 3.5C12.5 2.39543 13.3954 1.5 14.5 1.5C15.6046 1.5 16.5 2.39543 16.5 3.5C16.5 4.60457 15.6046 5.5 14.5 5.5ZM11.1797 4.6102C11.0632 4.26136 11 3.88806 11 3.5C11 1.567 12.567 0 14.5 0C16.433 0 18 1.567 18 3.5C18 5.433 16.433 7 14.5 7C13.4947 7 12.5884 6.57616 11.95 5.89743L6.82026 8.8898C6.93685 9.23864 7 9.61194 7 10C7 10.3881 6.93685 10.7614 6.82026 11.1102L11.95 14.1026C12.5884 13.4238 13.4947 13 14.5 13C16.433 13 18 14.567 18 16.5C18 18.433 16.433 20 14.5 20C12.567 20 11 18.433 11 16.5C11 16.1119 11.0632 15.7386 11.1797 15.3898L6.04998 12.3974C5.41161 13.0762 4.5053 13.5 3.5 13.5C1.567 13.5 0 11.933 0 10C0 8.067 1.567 6.5 3.5 6.5C4.5053 6.5 5.41161 6.92384 6.04998 7.60257L11.1797 4.6102ZM3.5 12C2.39543 12 1.5 11.1046 1.5 10C1.5 8.89543 2.39543 8 3.5 8C4.60457 8 5.5 8.89543 5.5 10C5.5 11.1046 4.60457 12 3.5 12ZM12.5 16.5C12.5 17.6046 13.3954 18.5 14.5 18.5C15.6046 18.5 16.5 17.6046 16.5 16.5C16.5 15.3954 15.6046 14.5 14.5 14.5C13.3954 14.5 12.5 15.3954 12.5 16.5Z" fill="white"/>
</svg>
