<svg width="24" height="24" viewBox="0 0 24 24" fill="none" xmlns="http://www.w3.org/2000/svg">
<path fill-rule="evenodd" clip-rule="evenodd" d="M14.1417 8.96939L13.793 8.19444L11.999 4.20649L10.2051 8.19442L9.85646 8.96937L9.01254 9.06875L4.64637 9.58295L7.95878 12.3368L8.67903 12.9356L8.45714 13.8456L7.444 18.0006L11.2647 15.8558L11.999 15.4436L12.7332 15.8558L16.5549 18.0011L15.5425 13.8453L15.3208 12.9354L16.0409 12.3368L19.3532 9.58302L14.9856 9.06876L14.1417 8.96939ZM8.8371 7.57905L3.3139 8.22951C2.44122 8.33228 2.11588 9.42986 2.79157 9.99161L6.99984 13.4902L5.71422 18.7628C5.50711 19.6121 6.41289 20.2996 7.17525 19.8716L11.999 17.1638L16.8234 19.872C17.5857 20.2999 18.4914 19.6126 18.2845 18.7633L16.9998 13.4902L21.2081 9.99166C21.8838 9.4299 21.5584 8.3323 20.6857 8.22955L15.161 7.57905L12.911 2.57747C12.5572 1.79115 11.4408 1.79115 11.087 2.57748L8.8371 7.57905Z" fill="white"/>
</svg>
