<svg width="62" height="52" viewBox="0 0 62 52" fill="none" xmlns="http://www.w3.org/2000/svg">
<path fill-rule="evenodd" clip-rule="evenodd" d="M30.9997 47.9583C43.1269 47.9583 52.958 38.1272 52.958 26C52.958 25.6252 52.9486 25.2527 52.9301 24.8825C48.6809 28.5407 43.1147 32.4354 36.83 36.0451C30.5064 39.6773 24.2953 42.5385 18.9641 44.369C22.4205 46.6383 26.5559 47.9583 30.9997 47.9583ZM34.885 32.6936C42.0001 28.6069 48.0674 24.2009 52.2151 20.3154C49.7103 10.9437 41.161 4.04163 30.9997 4.04163C18.8724 4.04163 9.04135 13.8727 9.04135 26C9.04135 32.0245 11.4676 37.4824 15.3962 41.4499C20.8602 39.8226 27.7489 36.7924 34.885 32.6936ZM56.833 26C56.833 24.4968 56.7046 23.0237 56.4583 21.5909C58.1974 19.8108 59.6499 18.0242 60.6184 16.3102C61.6261 14.527 62.8391 11.5017 61.191 8.6617C59.5428 5.82171 56.3027 5.35418 54.2466 5.3307C52.2939 5.3084 50.0432 5.65775 47.6563 6.25286C43.159 2.45551 37.3466 0.166626 30.9997 0.166626C16.7323 0.166626 5.16635 11.7326 5.16635 26C5.16635 27.5052 5.2951 28.9804 5.54217 30.4151C3.80413 32.1944 2.35255 33.9801 1.38449 35.6933C0.376845 37.4766 -0.836197 40.5019 0.811961 43.3419C2.46012 46.1818 5.7002 46.6494 7.75635 46.6728C9.70922 46.6951 11.96 46.3458 14.3472 45.7505C18.844 49.5458 24.6547 51.8333 30.9997 51.8333C45.267 51.8333 56.833 40.2673 56.833 26ZM57.8308 10.5917C57.0122 9.18124 54.5034 8.87757 50.8899 9.51439C52.758 11.7657 54.2511 14.3393 55.2735 17.1395C57.6523 14.3316 58.6522 12.0071 57.8308 10.5917ZM4.17214 41.4119C3.35092 39.9968 4.35015 37.6729 6.7279 34.8659C7.75079 37.6655 9.24425 40.2385 11.1125 42.4892C7.49934 43.126 4.99064 42.8222 4.17214 41.4119ZM18.0833 22.125C19.51 22.125 20.6666 23.2816 20.6666 24.7083C20.6666 26.135 19.51 27.2916 18.0833 27.2916C16.6566 27.2916 15.5 26.135 15.5 24.7083C15.5 23.2816 16.6566 22.125 18.0833 22.125Z" fill="#00E1D6"/>
</svg>
