<svg width="62" height="62" viewBox="0 0 62 62" fill="none" xmlns="http://www.w3.org/2000/svg">
<path fill-rule="evenodd" clip-rule="evenodd" d="M14.2083 12.9166C14.2083 15.0567 12.4734 16.7916 10.3333 16.7916C8.19316 16.7916 6.45826 15.0567 6.45826 12.9166C6.45826 10.7765 8.19316 9.04163 10.3333 9.04163C12.4734 9.04163 14.2083 10.7765 14.2083 12.9166ZM18.0833 12.9166C18.0833 17.1968 14.6135 20.6666 10.3333 20.6666C6.05305 20.6666 2.58326 17.1968 2.58326 12.9166C2.58326 8.63642 6.05305 5.16663 10.3333 5.16663C14.6135 5.16663 18.0833 8.63642 18.0833 12.9166ZM49.0833 50.3713H32.8834C37.269 46.4102 40.5796 41.3574 42.4499 35.6841C44.0531 30.8207 44.5342 25.6945 43.9017 20.6808C44.0776 20.7857 44.2513 20.8947 44.4226 21.0078C46.0511 22.0837 47.4216 23.5064 48.436 25.1739L51.7466 23.16C50.4353 21.0045 48.6637 19.1655 46.5586 17.7747C46.0807 17.459 45.5883 17.1681 45.0835 16.9029C46.3373 16.2936 47.688 15.882 49.0883 15.6918C52.0103 15.2949 54.9811 15.8846 57.5298 17.3675L59.4785 14.0182C56.1839 12.1013 52.3437 11.339 48.5667 11.8521C47.4194 12.0079 46.2978 12.2788 45.2175 12.6568C45.8372 12.0837 46.5127 11.5685 47.2364 11.1198C49.3499 9.80948 51.789 9.11919 54.2757 9.12758L54.2888 5.2526C51.0762 5.24176 47.9251 6.13357 45.1946 7.82641C43.2166 9.05269 41.517 10.6636 40.191 12.554C38.9536 11.3807 37.5443 10.3949 36.0073 9.63307C33.6505 8.46491 31.0566 7.85455 28.4262 7.8492L28.4183 11.7242C30.4543 11.7283 32.4621 12.2008 34.2864 13.105C35.2849 13.5999 36.2138 14.2169 37.0528 14.9394C35.3834 14.9463 33.7193 15.1974 32.1142 15.6886C29.7016 16.4269 27.4821 17.6894 25.6145 19.3858L28.2199 22.2542C29.6647 20.9418 31.3818 19.9651 33.2482 19.3939C35.1146 18.8228 37.0842 18.6713 39.016 18.9503C39.2514 18.9843 39.4855 19.0246 39.7182 19.071C40.7279 24.1723 40.4157 29.4778 38.7697 34.4709C36.6398 40.932 32.4032 46.4855 26.7463 50.2466C26.4048 47.1004 25.4233 44.0548 23.8596 41.2982C23.0111 39.8025 22.0017 38.4102 20.8524 37.1447C21.4977 37.0691 22.1504 37.0504 22.8027 37.0898C24.4284 37.1878 26.0123 37.6441 27.4411 38.4258L29.3011 35.0264C27.3713 33.9705 25.2319 33.3543 23.0361 33.2218C22.2035 33.1716 21.3707 33.1914 20.5461 33.2798C20.9049 32.9227 21.2893 32.5891 21.6973 32.282C23.6331 30.8252 25.9941 30.045 28.4168 30.0616L28.4433 26.1867C25.1709 26.1643 21.982 27.2181 19.3673 29.1859C18.9576 29.4941 18.5656 29.8222 18.1924 30.1683C18.2582 30.014 18.3276 29.861 18.4005 29.7094C19.2679 27.9071 20.607 26.3733 22.2758 25.2707L20.1397 22.0377C17.8872 23.5259 16.0796 25.5963 14.9088 28.029C14.2229 29.4544 13.7706 30.9729 13.5623 32.527C11.8689 32.307 10.1453 32.378 8.46695 32.742C6.14065 33.2464 3.96841 34.299 2.13086 35.8121L4.59407 38.8034C5.95541 37.6825 7.56471 36.9027 9.28813 36.529C10.4951 36.2673 11.7335 36.21 12.9525 36.3559C12.3358 36.8374 11.7562 37.368 11.2198 37.9436C9.71997 39.5529 8.59442 41.4738 7.92375 43.5689L11.6143 44.7503C12.1108 43.1992 12.9441 41.777 14.0545 40.5856C14.8331 39.7502 15.7344 39.0427 16.7249 38.4862C18.2158 39.8507 19.4872 41.4438 20.4891 43.2102C21.7431 45.4208 22.5477 47.8545 22.8598 50.3713H15.5417V54.2463H49.0833L49.0833 50.3713Z" fill="#00E1D6"/>
</svg>
