<svg width="48" height="54" viewBox="0 0 48 54" fill="none" xmlns="http://www.w3.org/2000/svg">
<path fill-rule="evenodd" clip-rule="evenodd" d="M29.3333 4.33337H34.6667C39.8213 4.33337 44 8.51205 44 13.6667V32.3334C44 37.38 39.9946 41.4911 34.9894 41.6612C34.6843 41.2811 34.3536 40.9222 34 40.5874V26.4951L41.4142 19.0809L38.5858 16.2525L34 20.8383V13.6667H30V28.8383L25.4142 24.2525L22.5858 27.0809L30 34.4951V38.1979C28.9513 37.8532 27.8307 37.6667 26.6667 37.6667C26.4421 37.6667 26.2191 37.6737 25.9979 37.6873C24.4293 35.7809 22.3889 34.2773 20.0553 33.3549C20.0187 33.0194 20 32.6786 20 32.3334V13.6667C20 8.51205 24.1787 4.33337 29.3333 4.33337ZM16.0001 32.3932C16 32.3733 16 32.3533 16 32.3334V13.6667C16 6.30291 21.9695 0.333374 29.3333 0.333374H34.6667C42.0305 0.333374 48 6.30291 48 13.6667V32.3334C48 38.9203 43.2236 44.3916 36.9454 45.4727C37.1982 46.3831 37.3333 47.3425 37.3333 48.3334C37.3333 48.7885 37.3048 49.237 37.2495 49.6771H48V53.6771H0V53.6667V49.6771V49.6667V47C0 38.8999 6.56649 32.3334 14.6667 32.3334C15.1162 32.3334 15.5609 32.3536 16.0001 32.3932ZM22.9091 40.2289L24.2066 41.8058L26.2449 41.6797C26.384 41.6711 26.5247 41.6667 26.6667 41.6667C30.3486 41.6667 33.3333 44.6515 33.3333 48.3334C33.3333 48.7914 33.2877 49.2371 33.2008 49.6667H4V47C4 41.109 8.77563 36.3334 14.6667 36.3334C17.9845 36.3334 20.9464 37.8435 22.9091 40.2289Z" fill="#00E1D6"/>
</svg>
