<svg width="201" height="74" viewBox="0 0 201 74" fill="none" xmlns="http://www.w3.org/2000/svg">
<path d="M0 7.5584C0 3.25952 1.98648 0.0935669 6.45607 0.0935669C10.9257 0.0935669 12.9897 3.19744 12.9897 7.5584V22.6433C12.9897 26.9422 11.0033 30.1081 6.45607 30.1081C1.90889 30.1081 0 27.0042 0 22.6433V7.5584ZM1.93993 22.7674C1.93993 25.9799 3.21252 28.3389 6.45607 28.3389C9.69963 28.3389 11.1119 25.9799 11.1119 22.7674V7.43424C11.1119 4.22172 9.80826 1.86278 6.45607 1.86278C3.10388 1.86278 1.93993 4.22172 1.93993 7.43424V22.7674Z" fill="#263238"/>
<path d="M16.0469 7.5584C16.0469 3.25952 18.0334 0.0935669 22.503 0.0935669C26.9725 0.0935669 29.0366 3.19744 29.0366 7.5584V22.6433C29.0366 26.9422 27.0501 30.1081 22.503 30.1081C17.9558 30.1081 16.0469 27.0042 16.0469 22.6433V7.5584ZM17.9868 22.7674C17.9868 25.9799 19.2594 28.3389 22.503 28.3389C25.7465 28.3389 27.1588 25.9799 27.1588 22.7674V7.43424C27.1588 4.22172 25.8551 1.86278 22.503 1.86278C19.1508 1.86278 17.9868 4.22172 17.9868 7.43424V22.7674Z" fill="#263238"/>
<path d="M38.3646 0.341919C42.9273 0.341919 44.6966 3.213 44.6966 7.51188V10.7244C44.6966 15.3802 42.5394 17.7081 37.868 17.7081H34.1899V29.8598H32.25V0.372964L38.3646 0.341919ZM37.868 15.9389C41.2823 15.9389 42.7566 14.387 42.7566 10.8486V7.38772C42.7566 4.19072 41.6548 2.11113 38.3646 2.11113H34.1899V15.9389H37.868Z" fill="#263238"/>
<path d="M60.0445 7.46532V8.10162H58.1822V7.34117C58.1822 4.23728 57.0027 1.86282 53.8057 1.86282C50.6087 1.86282 49.4137 4.14417 49.4137 7.24805C49.4137 14.4025 60.0755 14.5267 60.0755 22.6743C60.0755 26.9267 58.2287 30.0461 53.7126 30.0461C49.1964 30.0461 47.3496 26.9422 47.3496 22.6743V21.1224H49.2119V22.7675C49.2119 25.8713 50.4225 28.1992 53.666 28.1992C56.9096 28.1992 58.1356 25.9179 58.1356 22.7675C58.1356 15.6751 47.4738 15.5509 47.4738 7.34117C47.4738 2.90262 49.4137 0.0470508 53.6815 0.000492623C57.9494 -0.0460656 60.0445 3.21301 60.0445 7.46532Z" fill="#263238"/>
<path d="M64.8865 26.1508V29.8599H62.9932V26.1508H64.8865Z" fill="#263238"/>
<path d="M70.1628 26.1508V29.8599H68.2539V26.1508H70.1628Z" fill="#263238"/>
<path d="M75.4242 26.1508V29.8599H73.4688V26.1508H75.4242Z" fill="#263238"/>
<path d="M6.23867 43.2841C10.8014 43.2841 12.5706 46.1397 12.5706 50.4385V53.6511C12.5706 58.3069 10.4134 60.6503 5.74205 60.6503H2.07947V72.7865H0.124023V43.2997L6.23867 43.2841ZM5.74205 58.8035C9.15632 58.8035 10.6307 57.2516 10.6307 53.6976V50.2368C10.6307 47.0398 9.52878 44.9757 6.23867 44.9757H2.07947V58.8035H5.74205Z" fill="#263238"/>
<path d="M17.7542 66.2218L16.2799 72.7555H14.4951L20.9357 43.2686H23.8068L30.387 72.7555H28.4626L26.9106 66.2218H17.7542ZM18.0491 64.5302H26.6468L22.2548 45.4724L18.0491 64.5302Z" fill="#263238"/>
<path d="M45.8753 50.4851V52.6733H43.982V50.361C43.982 47.2571 42.7715 44.7895 39.5124 44.7895C36.2533 44.7895 35.0583 47.195 35.0583 50.361V65.7097C35.0583 68.8136 36.2688 71.219 39.5124 71.219C42.7559 71.219 43.982 68.8601 43.982 65.7097V59.3312H40.1021V57.562H45.8753V65.57C45.8753 69.8378 44.013 73.0348 39.5124 73.0348C35.0118 73.0348 33.1494 69.8378 33.1494 65.57V50.4851C33.1494 46.2328 34.9962 43.0203 39.5124 43.0203C44.0285 43.0203 45.8753 46.2328 45.8753 50.4851Z" fill="#263238"/>
<path d="M59.1136 56.9101V58.6793H51.0591V70.9862H60.7587V72.7554H49.1191V43.2685H60.7587V45.0377H51.0591V56.9101H59.1136Z" fill="#263238"/>
<path d="M72.2272 72.7866H70.458V43.2997H72.9877L81.8337 68.1307V43.2997H83.6029V72.7866H81.4613L72.1496 46.4036L72.2272 72.7866Z" fill="#263238"/>
<path d="M86.8154 50.4851C86.8154 46.1862 88.7864 43.0203 93.256 43.0203C97.7256 43.0203 99.7897 46.1241 99.7897 50.4851V65.57C99.7897 69.8688 97.8187 73.0348 93.256 73.0348C88.6933 73.0348 86.8154 69.9309 86.8154 65.57V50.4851ZM88.7554 65.7097C88.7554 68.9067 90.0124 71.2656 93.256 71.2656C96.4995 71.2656 97.9118 68.9067 97.9118 65.7097V50.361C97.9118 47.1484 96.6082 44.7895 93.256 44.7895C89.9038 44.7895 88.7554 47.1484 88.7554 50.361V65.7097Z" fill="#263238"/>
<path d="M107.969 72.7865V45.0533H101.994V43.2841H115.962V45.0533H109.925V72.7865H107.969Z" fill="#263238"/>
<path d="M134.445 57.6551V59.4243H126.825V72.7866H124.885V43.2997H136.09V45.0689H126.778V57.6706L134.445 57.6551Z" fill="#263238"/>
<path d="M138.914 50.4851C138.914 46.1862 140.901 43.0203 145.37 43.0203C149.84 43.0203 151.904 46.1241 151.904 50.4851V65.57C151.904 69.8688 149.917 73.0348 145.37 73.0348C140.823 73.0348 138.914 69.9309 138.914 65.57V50.4851ZM140.854 65.7097C140.854 68.9067 142.127 71.2656 145.37 71.2656C148.614 71.2656 150.026 68.9067 150.026 65.7097V50.361C150.026 47.1484 148.722 44.7895 145.37 44.7895C142.018 44.7895 140.854 47.1484 140.854 50.361V65.7097Z" fill="#263238"/>
<path d="M156.964 65.6631C156.964 68.767 158.143 71.2656 161.387 71.2656C164.63 71.2656 165.81 68.8291 165.81 65.6631V43.2841H167.626V65.57C167.626 69.7912 165.856 73.0348 161.418 73.0348C156.979 73.0348 155.086 69.7912 155.086 65.57V43.2841H157.026L156.964 65.6631Z" fill="#263238"/>
<path d="M172.794 72.7866H171.024V43.2997H173.554L182.4 68.1307V43.2997H184.169V72.7866H182.028L172.794 46.4036V72.7866Z" fill="#263238"/>
<path d="M193.93 43.2842C198.493 43.2842 200.464 46.2639 200.464 50.6093V65.4459C200.464 69.7913 198.493 72.7866 193.93 72.7866H187.443V43.2997L193.93 43.2842ZM193.93 71.0173C197.221 71.0173 198.586 68.7826 198.586 65.539V50.5318C198.586 47.2882 197.205 45.0534 193.93 45.0534H189.414V71.0173H193.93Z" fill="#263238"/>
</svg>
