<svg width="20" height="21" viewBox="0 0 20 21" fill="none" xmlns="http://www.w3.org/2000/svg">
<path fill-rule="evenodd" clip-rule="evenodd" d="M9.99998 0.5H9.24998V2H9.99998C10.9885 2 11.9776 2.17239 12.9213 2.51777C14.8775 3.23371 16.5028 4.6431 17.4884 6.47834C18.474 8.31357 18.7514 10.4469 18.2678 12.4731C17.7842 14.4994 16.5734 16.2775 14.8653 17.4699C13.1571 18.6622 11.0706 19.1858 9.00185 18.9412C6.93311 18.6966 5.02623 17.7008 3.64328 16.1429L2.52151 17.1387C4.14851 18.9715 6.3919 20.143 8.82571 20.4308C11.2595 20.7186 13.7143 20.1026 15.7239 18.6998C17.7335 17.297 19.1579 15.2051 19.7268 12.8213C20.2957 10.4375 19.9694 7.92773 18.8099 5.76863C17.6503 3.60953 15.7383 1.95142 13.4368 1.10914C12.3265 0.702815 11.1629 0.499996 9.99998 0.5ZM10.75 5.5V10.1338C10.75 10.869 10.4556 11.5736 9.93254 12.0902L8.02706 13.9724L6.97294 12.9053L8.87843 11.0231C9.11618 10.7882 9.25 10.468 9.25 10.1338V5.5H10.75ZM7 2.00092C7 2.5527 6.55228 3 6 3C5.44772 3 5 2.5527 5 2.00092C5 1.44914 5.44772 1.00184 6 1.00184C6.55228 1.00184 7 1.44914 7 2.00092ZM2.5 5.99816C3.05228 5.99816 3.5 5.55086 3.5 4.99908C3.5 4.4473 3.05228 4 2.5 4C1.94772 4 1.5 4.4473 1.5 4.99908C1.5 5.55086 1.94772 5.99816 2.5 5.99816ZM2 9.49908C2 10.0509 1.55228 10.4982 1 10.4982C0.447715 10.4982 0 10.0509 0 9.49908C0 8.9473 0.447715 8.5 1 8.5C1.55228 8.5 2 8.9473 2 9.49908ZM1.5 14.9982C2.05228 14.9982 2.5 14.5509 2.5 13.9991C2.5 13.4473 2.05228 13 1.5 13C0.947715 13 0.5 13.4473 0.5 13.9991C0.5 14.5509 0.947715 14.9982 1.5 14.9982Z" fill="white"/>
</svg>
