<svg width="18" height="11" viewBox="0 0 18 11" fill="none" xmlns="http://www.w3.org/2000/svg">
<path fill-rule="evenodd" clip-rule="evenodd" d="M1.26133 0.406494L1.37662 0.585615C2.99327 2.93794 5.79726 4.50509 9.00005 4.50509C12.2021 4.50509 15.0055 2.93867 16.6223 0.587276L16.7338 0.411269L18.0012 1.21354L17.8823 1.40134C17.8774 1.40905 17.8724 1.41666 17.8673 1.42418C15.9719 4.18981 12.7018 6.0051 9.00005 6.0051C5.29857 6.0051 2.02872 4.19012 0.133334 1.42489C0.129234 1.41891 0.125221 1.41287 0.121297 1.40677L0 1.21831L1.26133 0.406494ZM8.25054 7.99997L8.25054 11H9.75054V7.99997H8.25054ZM2.51341 6.50472L1.01341 9.00472L2.29965 9.77647L3.79965 7.27647L2.51341 6.50472ZM16.9874 9.00472L15.4874 6.50472L14.2012 7.27647L15.7012 9.77647L16.9874 9.00472Z" fill="#F5F5F5" fill-opacity="0.6"/>
</svg>
